<!-- Generated by IcoMoon.io -->
<svg version="1.1" xmlns="http://www.w3.org/2000/svg" width="768" height="768" viewBox="0 0 768 768">
<title></title>
<g id="icomoon-ignore">
</g>
<path fill="#000" d="M352.5 448.5h-64.5q0-60 22.5-112.5t62.25-91.5 91.5-61.5 111.75-22.5v63q-46.5 0-87 18t-71.25 48.75-48 71.25-17.25 87zM576 352.5v-64.5q-43.5 0-80.25 21.75t-58.5 57.75-21.75 81h64.5q0-27 12.75-48.75t34.5-34.5 48.75-12.75zM223.5 127.5q0-25.5-18.75-44.25t-44.25-18.75q-27 0-45.75 18.75t-18.75 44.25q0 27 18.75 45.75t45.75 18.75q25.5 0 44.25-18.75t18.75-45.75zM366 144h-63q-6 34.5-32.25 57t-62.25 22.5h-96q-21 0-34.5 14.25t-13.5 33.75v81h192v-73.5q43.5-13.5 74.25-50.25t35.25-84.75zM607.5 544.5q27 0 45.75-18.75t18.75-45.75-18.75-45.75-45.75-18.75q-25.5 0-44.25 18.75t-18.75 45.75 18.75 45.75 44.25 18.75zM655.5 576h-96q-36 0-62.25-23.25t-32.25-56.25h-63q4.5 48 35.25 84.75t74.25 50.25v72h192v-79.5q0-19.5-13.5-33.75t-34.5-14.25z"></path>
</svg>
