<svg viewBox="0 0 62 39" fill="#fff" height="36" xmlns="http://www.w3.org/2000/svg"><path fill-rule="evenodd" clip-rule="evenodd" d="M34.013 24.848H0L24.57 2.075C26.664.135 29.674-.503 32.426.41c2.75.914 4.705 3.201 5.1 5.969L41.45 33.88c.117.821.677 1.469 1.496 1.73.82.263 1.672.065 2.28-.524l10.535-10.24H43.696l-.404-2.502H62l-14.918 14.5a4.896 4.896 0 01-3.42 1.381 5.06 5.06 0 01-1.538-.24c-1.757-.561-3.005-2.004-3.257-3.766L34.942 6.72c-.265-1.857-1.524-3.331-3.37-3.944-1.845-.614-3.785-.202-5.19 1.1l-19.93 18.47h27.194l.367 2.503zM54.97 11.805h-2.366V.03h2.366l4.488 7.722h.035V.03h2.384v11.775h-2.332l-4.54-7.721h-.035v7.721z" fill="var(--color-type-white)"/></svg>