<?xml version="1.0" encoding="utf-8"?>
<!-- Generator: Adobe Illustrator 23.0.3, SVG Export Plug-In . SVG Version: 6.00 Build 0)  -->
<svg version="1.1" id="Capa_1" xmlns:v="https://vecta.io/nano"
	 xmlns="http://www.w3.org/2000/svg" xmlns:xlink="http://www.w3.org/1999/xlink" x="0px" y="0px" viewBox="0 0 1370 3203"
	 style="enable-background:new 0 0 1370 3203;" xml:space="preserve">
<style type="text/css">
	.st0{fill:none;stroke:#0B2436;stroke-miterlimit:10;}
	.st1{fill:#F2F7F7;}
	.st2{clip-path:url(#SVGID_2_);}
	.st3{fill:none;stroke:#0B2436;}
	.st4{clip-path:url(#SVGID_4_);}
	.st5{clip-path:url(#SVGID_6_);}
	.st6{fill:none;stroke:url(#SVGID_7_);stroke-miterlimit:10;}
	.st7{fill:none;stroke:url(#SVGID_8_);stroke-miterlimit:10;}
	.st8{fill:none;stroke:url(#SVGID_9_);stroke-miterlimit:10;}
	.st9{fill:none;stroke:url(#SVGID_10_);stroke-miterlimit:10;}
	.st10{clip-path:url(#SVGID_12_);}
	.st11{fill:none;stroke:#0B2436;stroke-width:0.97;stroke-miterlimit:10;}
	.st12{clip-path:url(#SVGID_14_);}
	.st13{fill:#0B2436;}
</style>
<g>
	<path class="st0" d="M223.3,3009.4c12.3-12.5,14.4-13.7,37.8-21.4s47.6-7,57.2-17.4s-2.2,16.7-2.5,26.9s-2.8,29.3-1,42.2
		s6.6,1.8,8.7-14.9s1.3-32.9,7.6-44.3s13.2-19.7,15.1-30.1s11.4-13.1,25.8-23s25.5-24.4,31.5-37.3s33.3-16.6,45.9-35.4
		s42-27.7,50.1-45.6s9.9-12.8,10.8-4.4s5.6,24.5,20.2,27.9s41.6-5.8,52.3,20.8s17.5,33.9,29.7,48.6s4.7,23.9,5.6,32.3s7.2-3,8.7-7.1
		c2.7-8.4,1.7-17.5-2.6-25.1c-5.9-10.5-10.4-9.6-15.5-23.4s-15.2-18-18.1-29.1s-1.1-17.6-12.5-24s-16.7-6-32.3-6.1
		s-19.7-9.3-21.5-18.3s-2.3-19.7,1.9-29.9s3.3-14.6,8.7-18.8s8.6,8.4,21.5,2.8s11.7-7.7,17.1-11.9s13.2-4.1,15.2,2.4
		s17.3,1.3,23.9,10.9s12.8,21.6,9.2,34.7s-7.8,19.4-6.7,33.2s12.7,21.6,13.9,31.5s9-5.6,4.8-14.9s-9.8-14.4-8.9-25.5
		s4.5-12.5,6.7-21.5s0.3-10.2,4.2-14s2.7,5.7,11,20.4s28,24,44.5,32.4s37,14.5,43.5,39.6s22.9,29.7,34.8,46.8s30.7,29.7,32.4,54.2
		s54.5,52.2,80,43.4s17.7-8.9-2.7-9.6s-40.7-5.2-51.7-17.8s-10.1-27.6-16.6-37.1s-29.5-35.4-39-48.3s-19.1-18-22.6-32.1
		s-0.2-20.9-28.6-38.7s-39.7-16.3-50.5-27.4s-16.7-17.7-19.9-26.4s-3.2-16.5-15.2-21.9s-25.1-16.8-31.3-21s-8.7-4.5-9.8-10.5
		s3.3-6.9,16.7,2.1s19.4,11.7,33.4,19.9s11.6,15.6,17,23.1s14.3,5.7,12-2.4s-10.7-15-6.8-18.9s13.2-0.3,27.2,0.1s30.8-1.4,38.9-11.5
		s10.8-23.9,24.3-26.5s16.7,6,35.6,3.1s33.2-12.8,44.6-10.3s41.2,12.1,43.6,24.1s27.2-3.8,41.3-3.4s22.1,1.9,24.3-7.1
		s-3.9-16.6-11.6-15.6c-12.9,1.8-0.9,7.2-17.4,10.4s-15.9,2.3-23.7,6.2s-6-6.6-17.6-14.4s-16.4-8.4-26.3-11.2s-23-6.4-15.5-7.8
		s14.7-0.6,34.4-6.8s21.9-15.2,44.3-11.8s35.9-10.9,50.9-6.1s25.4,10.6,41.8,11.2s31.9,35.7,48.3,36.4s45.3-26.8,62.3-34.8
		c17.9-8.4,29.4-16.6,43.4-12.4s23,2.8,24.2-3.2c1.2-5.7-1.2-9.9-9.8-10.5s-10.5-1.8-19.5,3.8s-24.2,3.2-35.6,8.6
		s-12.4,5.7-30.6,18.4c-17.1,11.9-25.8,22.9-35.9,14.8s-20.8-30.9-36.1-37.2s-19.1,1.4-34.7-6.4s-19.7-5.4-33.5-4.3
		s-27.8,8.6-42.5,5.2s-24.2,3.2-34.4,6.8s-18,11.3-35,11.5s-38.3-4.9-61.6,2.8s-22.8,10.7-42.2,10.6s-36.2,5.6-53.9,14.5
		s-15,10.7-22.8,6.8s-13.7-6.6-23.6-1.6s-13.2,8-26.9,5.3s-10.4-17.4-25-24.6s-17-7.5-28.4-6.1s-8.7-4.5-2.4-12s6.6-13.7,14.1-15.2
		c0,0,10.7,11.1,25.4,6.7s27.2-3.8,38.9,0.1s32.9-2.6,36-14.8s-3.8-15.6-8.9-17.7s-10.2,7.4-18.3,13.7s-8.1,10.1-21.3,6.5
		s-20.9,0.2-31.7,0.8s-15.5-7.8-14.6-11.1s10.8-12.2,13.8-20.6s14.8-35.5,29.1-33.7s16.4,4.5,38.3,4.9s53,20.7,66.2,12.6
		s24.9-14.3,35.5-11.4s41,4.9,53.2,4s34.4-2.9,55.7-9.4c16.3-5,25.4,2,33.4,6.3c3.4,1.9,7.3,2.6,11.2,2.3c3.7-0.4,9.4-0.6,13.9,0.9
		c7.5,2.4,23,6.4,32.9,5.2s37.7-5.9,50-6.7s25.4,2.8,32.6-0.2s11.7-15.5,16.2-24.2s12-17.9,25.2-22s31.8-16.3,38.4-26.2
		s16-29.6,18.1-34.6s-7.2-0.9-10.8,8.3s-10.7,23.8-15.6,27.9c-7.3,6.2-9.6,7.7-14.9,10.8c-9.4,5.5-28.4,8.9-37.9,15.5
		c-7.1,4.9-17.6,30.9-23.2,35c-7.7,5.8-17.3-2.5-30.2-0.8s-22.2,5.9-41.9,4.3s-15.9,2.3-30.2-3.4s-17,0.2-24.8-3.7
		s-21.8-12-32.6-11.5s-18,11.3-37.7,9.7s-37.7,2-53,3.4s-32.3-6.1-42.8-4s-22.2,17.6-35.3,13.9s-31.7-14.8-45.4-13.6
		s-35.3-5.5-45.1-8.2s-9.3-3.6-7.4-10.2s19.2-24.8,20.2-39.7s13-29.9,14.5-35.2c1.8-6.6,17.4-11.9,23.8-14.4
		c10.2-4,21.5,2.8,35.3-2.2s30.8-1.4,37.7-13.6s18.3-13.7,18.6-23.9s-2-22.1-10.7-22.8s-11.1,6.8-11.1,18.5s-0.7,16.4-5.8,22.1
		s-9.6,6.5-18,7.4s-14.8,5-25.9,4.1s-13.6-3.3-21.7-1s-19.2,9.2-18.9,6.8s1.8-14.4,4.1-24.8c1.7-7.4,4.7-9.5,14.6-22.4
		s20.4-25.8,27.7-41.2c7-14.9,15.4-40.3,16.6-53.8c1.5-16.4-1.7-26.4,3.7-38c2.3-5,30.9-14.6,38.8-26.3c9.7-14.3,17.1-13.6,32-27.3
		c16.4-15,38.6-9.1,49.2-30.6s13-36.7,20.8-52.3s-1.8-9-4.2-5.4s-5.4,8.1-12.3,24.2s-6.7,29.3-14.8,35.6s-24,8.6-30,13.6
		s-6.5-1.5-3.9-7.8c4.5-10.7,9.6-7,17.7-14c7.4-6.4,12.9-16.1,12.1-24.5s-5-25.4-17.2-32.4s-20.6-9.9-21.8-19.8s9.6-18.2,4.6-28.1
		s-6.3-8.1-2.9-18.9s20.2-55.3,32.2-61.5s33.5-11.2,40.2-25s2.9-56.5,6.5-69.7s-4.7-12.3-9.5-9s-8.1,10.1-5.5,19.7
		s5.6,28.4,2.5,40.7s-1.5,15.8-9,21.2s-25.5,8.9-30.9,13s-14.4,21.5-21.3,33.7s-15.7,27.2-17.5,41.5c-0.8,6.2,5.4,15.6,2.6,21.2
		c-1.7,3.8-6.1,5.6-9.9,3.9c-2.4-1-4.1-3.2-4.4-5.8c-1.3-6.8,1.2-13.5,3.7-28.7c2.3-14.5-6.8-18.9-5.9-29.9s0.7-20.3,3.4-26.3
		s-3.7-1.2-5.2,3s-4.1,8.9-4.7,17.6s-1.2,13.4,2.6,24.4c2.6,7.5-1.1,14.2-3,24.6s-2.3,16.7,0.1,24.8s11.9,9.3,15.5,19.5
		s12.2,18.6,11.9,28.8s10,23.4,7.9,32.4s-2.7,21.8-7.8,31.4s-11.3,10.1-16.1,13.4s-10.4,8.9-18.8,19.1c-4.6,5.6-13.4,8.8-23,3.7
		s-21.7-18.2-24.1-30.1s1.9-26,0.8-43.7s-4.1-20.9,11.8-42.7s19.3-32.5,21.7-47.8s6.4-46.3,2.9-68.2s-0.5-34.1-3.7-50.6
		s-5.2-18-2.8-33.3s-11.2-69.6-5.2-86.4s10.6-25.4,11.5-40.3s0.1-38.9,5.3-56.2s12.3-61.8,11.4-79.2c-0.7-14.2-22.6-39.9-22-52.5
		s1-16.1-2.7-21.8c-5.8-9.1-14-2.5-18.5-13.3c-4.6-11.2-17.2-24.3-18.1-32.7s6.8-19,5.3-26.6s-9.1-24-12.4-36.6s3.2-41,6.1-51.4
		c3.2-11.7,14.7-16.3,17.4-30s11.3-14.2,9-33.9c-1.3-11.4-8.4-24.2-8.4-32s-1.9-14.4-4.4-8.3c-4.5,10.9,2.9,26.1,4.2,39.7
		c1.2,13.1-6.1,23.3-10.5,38.1c-2.7,9.3-15,15.7-18,28c-2,8.3-6.1,20.8-7.7,33.8c-1,9,0,18,3.1,26.5c3.1,8.7,7.5,22,7.2,28.6
		c-0.3,10.2-5.2,17.3-3.7,28.7s19.4,35.1,24.2,44.1c4.6,8.8,15.3,8.3,13.4,22.6s20.7,39.9,21.5,52.2s-2.5,26.9-6.8,48.7
		s-12.5,70.8-12,89.4s-8.2,25.7-9.7,37.7s-0.4,25.6,1.8,39.9c1.5,9.8,3.6,27.5,3,40s-6.9,8.3-15.6,3.8s-26-5.8-34.7-6.4
		s-11.4-2.4-9.2-15.3s7.6-28.7,4.9-46s3.1-43.4-11.5-54.5s-35.2-17.2-45.1-31.6s-23.2-27.3-47.4-39.6s-48-34.9-56.3-53.4
		s-34.6-37.5-43.5-39.6s4.2,5.4,15.5,19.5s8.1,1.5,31.9,43.5s56.4,37.9,73.4,61s29.2,30,45.6,42.3s23.3,15.6,22.9,33.6
		s2.8,42.2-3.8,67.6s16,30.3,22.9,29.7s35,4,43.3,10.9s13.4,20.7,14.2,33s7.4,36.3,3.8,55.2c-4,21.2,1.1,39.6-7.6,42.7
		c-8.6,3.2-18.3-0.8-22-9.2c-3.6-8.9-7-26.3-8.2-20.6s-0.4,13.6,1.7,24.5c2.9,15,21.2,12.9,23.6,17.1c2.9,5.1-3,16.1-7.8,19.4
		s-14.3-17.4-18.5-26.7s-11.9-13.2-17-23.1s-5.6-20.7-13.6-37.7s-20.3-16.2-33.4-19.9s-25.7-0.4-36.4-15.4s-25.9-29.1-27.7-45.8
		s-6.9-3.3-6.9,4.5s5.9,29.9,16.9,42.5s26.8,21.9,42.1,24.4s39.8,4.6,45.3,33.1c5.6,28.4,6.5,29,14.5,38.3s9.2,7.5,12.8,21.6
		s15.5,11.7,8.9,25.5s-11.1,22.4-12.4,35.8s2.3,19.8,2.3,39.2c-0.1,21,3.7,24.9,17,35.1c7.3,5.5,10,15.3,6.5,23.8
		c-3.8,9.1-6.1,19.4-7.1,36.6c-1.3,21.2-2.8,33.2-17.9,63.4s-30.3,35.5-37,53.1s-5,60.8-22.8,72.9c-11.3,7.7-27.6-21-37.5-27.6
		s-11.3-6.3-24.2-8.5c-4.9-0.8-10.3-3.5-15.9-6.4c-2-1.1-3.1-3.4-2.6-5.6c1-4.4,1.6-8.9,1.9-13.5c2.2-36.2-4.9-44.9,1.1-61.6
		s18.7-35.5,16.9-40.6s-9.3,4.2-9.3,4.2s-17.7,24.3-20.2,43.6c-2.2,17.1,4.7,39.5,1.9,53.2c-0.6,2.8-1.4,5.5-2.5,8.1
		c-1,2.6-3.8,4-6.5,3.2c-3-1-6.1-1.5-9.3-1.6c-15.5-0.1-11.4,5.3-24.2-4.6s-17.9-15.9-25.3-33.9s-4.7-16.2-5.3-26.9s-5-9.9-5.7-5.1
		s-3.5,9.1-1.3,21.2c2.6,14,12.6,41.6,23.7,50.3c3.1,2.4,11.9,13.9,22.6,15.8c32.1,5.7,11.3,22.1,7.3,31.9
		c-5.9,14.8-2.7,35.5-8.9,38.6s-15.5-7.8-22.1-21.3s-3.2-16.5-7.4-25.7s-9.5-12.9-15.5-15.6s-6.3-4.2-13.4-16.8
		s-10.7-30.5-12.4-39.5s-9.5-12.9-20-18.6s-30.6-23.7-39.3-38.1c-9.2-15.3-17.8-31.5-13.9-50.9s13.4-65.6,12.2-83.3
		c-1-15.2-6.6-25.4-24.5-33.2c-13.2-5.7-26.4-13.5-36.6-13.8c-12.2-0.4,5.9,4.6,19.4,11.7c22.6,11.9,31.7,15.9,33.1,33.9
		c1.1,14.9-3.2,41.5-7.9,62.9c-3.3,14.9-12,30.4-4,52.7c8.3,22.8,15.6,31.8,27.9,46.4s36.3,25.1,41.4,35c6.8,13.3,8,24.9,14.2,40.7
		s19.1,18,27.1,35.1s8,28.8,12.7,37.1s16.1,10.8,20.6,21.6s2.9,22.7,9.2,30.8s6.2,12,8.3,26.4s8.3,26.4,0.5,26.3s-14.3-13.5-26-17.4
		s-19.7-1.6-31-19.6s-28.7-20.8-37.9-32.2s-11.3-21.9-24.7-30.9s-16-4-27.6-15.7s-8.8-19-20.4-30.7s-24.6-8-29.2-28.2
		c-4.1-17.6-3.8-17.1-27.4-37.8c-12.2-10.6-8.5-28.6-21-40.9s-27.4-24.9-29.8-33s-8.4-10.8-14.6-11.1s-22.5,8.3-21.6,20.6
		s13.1,19.2,23.3,19.5s21.8-4.1,32,6.9c9.8,10.5,11.1,14.9,14.1,28.1c3.3,14.6,28.1,30.5,32,38.3s2,11.2,4.7,20.1
		c2.6,8.5,15,15.9,27.4,24.9c10.8,7.9,15.8,24.3,21.7,31.5c7.5,9.1,20.3,8.4,27.8,14.8s17.6,18.3,21.7,27.6s7.1,12.6,19.4,19.5
		s23.3,15.6,30.1,26.7s9.1,6.9,23.7,13.6c8.4,3.9,12.3,8.5,15.4,11.3c4.8,4.4-5.4,8.1-12.9,5.6s-13.2,0.3-31.4-13.3
		s-41.2-16-54.7-13.4s-20.4,14.9-37.8,21.4s-49.1,19-67.1,18.6s-30.5,6.8-43.7,22.6s-4.6,24.2-26.4,27.7s-29.6,7.4-36,14.8
		s11.7-3.9,22.4-4.4s24.2,0.7,34.4-10.6s12.7-30.5,34.2-35.5s35.6-0.8,56.3-10.3s38.5-14.8,56.3-25.8c14.2-8.8,25.4-5,37.4,0.4
		s32.2,21.6,51.7,21.7s22.4,11.1,32.9,13s7.4,10.2,0.6,10.8s-11.1,10.7-26.1,17.6s-15,22.4-23.1,28.6s-8.1,21.8-15.7,31.1
		s-6,16.7-14.7,20s-18.3,2-24.6,9.5s0.3,5.4,6.9,3.3s15.9-6.2,13.5-2.6s-16.6,38.2-30.7,49.6s-30.9,24.7-34.8,36.4
		s0.5,30.2-10.3,42.4s-18.7,35.5-42,43.2s-54.2,13-66.5,25.5s-16.8,21.2-20.4,30.4S211,3021.9,223.3,3009.4L223.3,3009.4z
		 M786.5,2683.6c9.2-1,18.5-1.3,27.8-0.8c2.4,0.3,4.5,3,4.5,6.9s-8.1,10.4-14.7,12.2c-9.6,2.7-26.5,3.2-36.2-2.2
		C756.5,2693.3,775.1,2685,786.5,2683.6L786.5,2683.6z M665.5,2720.6c3.4-2.1,8.7-3.3,15-6.8c6.6-3.8,15.6-7.7,24.9-11.9
		s20.7-5.6,29-6.5c5.8-0.6,10.5,1.8,10.1,8.1c-0.2,4.6-16.2,16.4-21.9,23c-9.2,10.6-24.8,8-32.3,9.5c-4.2,0.8-15.3,1.1-21.8-0.4
		C660.5,2733.6,656.5,2726.2,665.5,2720.6L665.5,2720.6z M624.5,2717.7c1.5-0.3,7.8,0,13.2-0.3s9.3,3.6,9.3,3.6
		c2.7,1.8-1.2,5.7-6.6,6s-18.8-4.9-18.8-4.9C617.7,2718.3,623.1,2718,624.5,2717.7L624.5,2717.7z M780.5,2153.1
		c-2.3-8.9-1.7-17.4,5.6-16.9c7.5,0.6,11.2,6.4,14.2,13c4.2,9.3,8.9,17,0.6,25.7C795.8,2180.2,782.8,2162.1,780.5,2153.1
		L780.5,2153.1z M497.6,2576.2c-3-3.3-4.7-14.5-5-19.8c-0.2-3.7,1-5.9,2.9-6.5c1.4-0.5,3,0,4,1.2c3.6,4.1,5.5,9.4,5.4,14.9
		C504.5,2576.1,500.6,2579.5,497.6,2576.2L497.6,2576.2z M513,2624.6c-0.8-16.1,2.5-38.6,2.9-52.6s-6.8-22.8-10.6-38.3
		c-2.7-10.9,4.7-35.5,20.4-64c0.9-1.7,2.7-2.6,4.4-1.8c3.2,1.7,6.2,3.5,9.2,5.5c12.5,8.4,25.4,2.8,37,22.3
		c11.5,19.3,23.3,15.6,29.2,22.2c3,3.3-10.2,15.2-14.8,27.8s1.1,17.6-11.5,36.4s-13.2,23.6-23.1,28.6s-14.1,11.3-14.4,17.6
		s1.1,17.6-4.3,21.8S513.9,2640.8,513,2624.6L513,2624.6z M438.6,2764.3c2.5-3.7,15.9-25.7,20.5-34.3c3.2-6.1,20.6-21.1,32.1-26.8
		c3.7-1.9,8.3-0.6,10.4,3c0.9,1.5,2,2.8,3.3,3.9c5.7,5.1,14.6,3.3,14.3,9.6s-5.7,18.2-9.6,22.1s-14.1,3.5-17.7,8.9
		s-1.8,10.5-9.9,12.8s-13.2,0.3-23.6,6.2s-14.6,9.8-19.2,9.2C434.4,2778.3,433.8,2771.5,438.6,2764.3L438.6,2764.3z M474.2,2779.1
		c4.8-3.3,12,1.5,18.9-2.9c5-3.3,8.8-14.9,13.6-20.4c3.8-4.3,10.9-0.9,9.8,4.8c0,0.1,0,0.1,0,0.2c-1.2,5.7-7.5,17-11.4,20.9
		s-14.7,8.3-18.6,8.3s-16.4,7.1-23.1,13.1s-15.3,9.2-16.5,7.1s2.7-9.9,10.2-15.2S469.4,2782.4,474.2,2779.1L474.2,2779.1z
		 M401.3,2831.5c0.9-3.3,6.9-8.4,12.3-16.4s6-12.8,9.6-18.2s14.1-7.4,18.6-8.3s4.2,1.5,3.9,3.9s-4.8,7.2-4.8,7.2
		c-11.4,9.2-18.9,18.5-26.4,27.7S400.4,2834.8,401.3,2831.5L401.3,2831.5z M426.4,2836.7c8.4-4.8,18.9-6.8,25.2-10.4
		s16.8-17.3,21.6-20.6s10.2-3.6,12.3-0.9c1.4,2,1,4.7-1,6.1c-0.3,0.2-0.5,0.3-0.8,0.5c-2.7,1.4-6.4,2.8-10.5,5.9
		c-5.4,4.2-13.8,12.8-19.5,19.4s-9.3,8.1-15,10.7c-9.3,4.2-13.9,8.9-17.7,16.7c-3.3,6.9-11.4,9.2-12.6,3.3
		C406.4,2857.4,418,2841.4,426.4,2836.7L426.4,2836.7z M352.3,2918c0-7.8,1.5-12,3.1-20s1.5-15.9,6.4-23s7.8-11.6,12.6-14.9
		s9-9.5,14.1-11.3s10.8-0.6,10.5,5.7l-1,15c-0.3,10.2-5.1,13.4-8.8,22.7s-12.9,17.3-20.1,24.2S352.2,2926.9,352.3,2918L352.3,2918z"
		/>
	<path class="st0" d="M925,1521.6c-20.5-19.3-34.2-44.7-39.1-72.4l-0.3-2c-3.9-21.9-13.9-70.6-21.1-87.7s-1.7-26.9-4.5-38.6
		s-8.9-24-16-36.5c-4.9-8.6-13.3-24.3-17.2-36.2s3.4-10.3,13.1-9.2s26.3-4,34.7-6.5s11.5-1.8,14.1,10.9s3.3,29.5,12,44.7
		s12.7,41.6,30.3,46.7s39,3.3,53.4,13.2s31.5,17.1,58.5,19.9c27,2.8,57.4,15.2,71.8,29.5s45.8,22.5,54.9,21.3s-5.8-3.5-21.5-12.6
		s-8.1,1.5-45.4-29.1s-66.3-15-90.4-30.4s-38.1-17.5-57.8-23s-27.3-6.2-33.5-23.1s-17.9-38.3-20.8-64.4s-25.9-22.4-32.1-19.4
		s-34.1,8.9-44.3,5.4s-20-14.5-25.2-25.6s-20-31.2-23.4-50.2c-3.9-21.3-15.3-36.5-8.3-42.5c6.9-6.1,17.3-5.8,23.9,0.7
		c6.6,7,16,22,15.1,16.2s-4.5-12.9-10.4-22.3c-8.1-12.9-24.4-4.4-28.2-7.5c-4.5-3.7-3-16.2,0.3-20.9s19.6,11.1,26.8,18.2
		s15.9,8,24.2,15.4s12.7,17.2,26.3,30.3s24.8,7.8,38.3,6.5s24.1-8.9,39.5,1.2s34.7,17.8,42.3,32.8s7.6,0.6,4.8-6.7
		s-16.3-25.8-31.1-33.6s-32.9-10.8-48-7.6s-38.8,10-54.2-14.5s-16.5-24.8-27.4-30.5s-11.3-3.7-19.7-15.5s-18.7-5.3-17.5-20.5
		s2.3-24.9-1.4-37.9s-9.4-17.6-16.4-35.8c-7.5-19.6-12.5-21.9-28.5-26.6c-8.8-2.5-14.8-10.7-14.6-19.9c0.3-9.8-1.3-20.2-6.6-36.7
		c-6.5-20.3-9.3-32-6.2-65.5s15.5-44,15.3-62.9s-17.2-58.5-5-76.2c7.8-11.3,33.3,9.6,44.9,12.3s12.9,1.8,25.6-0.8
		c4.9-1,10.8-0.5,17.2,0.3c2.3,0.3,4.1,2,4.5,4.3c0.7,4.5,1.8,8.9,3.1,13.2c11,34.5,20.8,40.1,21.2,57.9s-4.6,39.9-1.1,44
		s7.2-7.2,7.2-7.2s7.7-29.1,3.1-48c-4.1-16.8-18.6-35.2-21-49c-0.4-2.8-0.6-5.7-0.6-8.5c0-2.8,2.1-5.1,4.9-5.3
		c3.1-0.2,6.2-0.8,9.2-1.9c14.5-5.5,8.7-9.1,24.2-4.5s22.4,8.4,35.8,22.5s10.2,13.4,14.6,23.2s8.3,7.4,7.1,2.7s0-9.8-6.5-20.3
		c-7.5-12.2-26.8-34.3-40.2-38.3c-3.7-1.1-16.1-8.6-26.8-6.5c-32,6.3-18.5-16.5-18.3-27.1c0.2-15.9-10.3-34.1-5.6-39.2
		s17.3,1.7,28.3,11.9s9,14.2,16.2,21.3s13.5,8.6,20.1,9s7.4,1.7,18.5,10.8s21,24.6,25.8,32.4s13.5,8.6,25.3,10.2s37.1,11,50.5,21.4
		c14.1,10.9,28,22.9,31.3,42.5s11.2,66,18.6,82.1c6.4,13.8,15.3,21.4,34.9,22.1c14.4,0.6,29.5,3,39.1-0.3c11.5-4-7.2-2.2-22.3-4
		c-25.4-2.9-35.3-3.4-43.1-19.7c-6.4-13.5-12-39.9-15.3-61.5c-2.3-15.1,0.2-32.7-15.3-50.6c-15.9-18.3-26-24-42.7-33.3
		s-42.9-10.4-51.2-17.8c-11.2-10-16.4-20.3-27.9-32.9s-24.3-9.9-37.9-23s-17.8-23.9-25.3-30s-18.9-4.3-27-12.7s-10.8-20.2-19.6-25.5
		s-10.1-8.9-17.2-21.6s-17.2-21.6-10-24.4s18.2,7.4,30.5,6.9s19-5.7,36,7s34.5,8.9,47.2,16.2s18.4,16.3,34.2,19.9s16.4-2.1,31.4,4.6
		s15,14.6,30.1,21.3s25.8-1.4,37.4,15.7c10.2,15,9.7,14.6,39.2,25.3c15.2,5.5,18.2,23.7,34.3,30.6s34.6,13.3,39.7,20
		s11.7,7.1,17.6,5.1s18-15.8,12.7-27s-19.1-13.2-28.7-9.8s-18.8,11.7-32.3,5.1c-12.9-6.3-15.8-9.9-23.3-21.1
		c-8.3-12.5-37.2-18.3-43.6-24.1s-5.9-9.7-11.6-17c-5.5-7-19.7-9.4-34.6-13.3c-12.9-3.4-23.5-17-31.6-21.5
		c-10.3-5.8-22-0.5-31.2-3.8s-23-10.7-30.2-17.9s-11.2-9.2-25.1-11.2s-27.3-6.2-37.7-14.1s-11-3.1-27-4.2c-9.2-0.6-14.6-3.5-18.5-5
		c-6.1-2.4,2.2-9.5,10-9.9s12.2-5,34,1.1s44.2,0.1,55.8-7.3s13.7-21.2,27.5-33.6s39-35.4,55.8-41.5s26-17.3,32.7-36.8
		s-4.5-24.2,14.7-35.4s25-17.6,28.2-26.8s-9.5,7.8-19.3,12.2s-22.8,8.1-28.2,22.4s-0.8,33-19.1,45.4s-32.9,13.5-48.8,29.9
		s-30.6,27.7-43.2,44.4c-10.1,13.4-21.9,13.8-35,13.1s-37.9-8.6-56-1.6s-24.9-2.3-35.3-0.3s-10.6-6.8-4.4-9.9s6.5-14,18-25.8
		s6-26.3,11.3-35s-0.3-23.3,3.4-34.6s-0.4-17.8,6.5-24s16.3-8.5,19.5-17.7s-2.2-4.9-7.6-0.6s-12.6,11.5-11.6,7.3s1.7-41.6,10.8-57.3
		s19.9-34.2,19.4-46.5s-11.4-28-5.7-43.3s4.6-39.9,23.6-55.5s45.9-31.6,52.8-47.7s8.1-25.8,8.1-35.8s-4.2-1-11.2,15.2
		s-8.5,18-27.5,33.7s-41.9,23.7-47.1,36.9s-4-16.4-7.4-26s-8-28.3-14.2-39.7s-6.8,0.7-2.8,17.1s10.6,31.2,8.8,44s-5.2,23.1-3.2,33.6
		s-5.9,16.4-15.8,30.7s-15,32-16,46.1c-1,14.1-25,27.5-30,49.6s-29.2,41-30.3,60.6s-4.6,15.5-8.5,8s-14.1-20.9-28.9-18.7
		s-36.7,20.4-56.3-0.6s-28.6-25.3-45.3-34.6s-13-20.6-16.8-28.1s-5.6,5.4-5.5,9.8c0.5,8.8,4.7,16.9,11.5,22.5
		c9.3,7.6,13.2,5.2,22.9,16.2s20.7,11.3,27.4,20.6s7.4,16.1,20.3,17.9s17.8-0.4,32.3-6s21.8,1.6,26.6,9.3s9.3,17.6,9,28.6
		s2.2,14.9-1.4,20.7s-11.1-4.7-21.1,5.2s-8.2,11.5-11.7,17.3s-10.8,8.6-15.1,3.2s-16.6,5.1-26.2-1.5s-19.7-15.5-21-29.1
		s0.3-20.9-5.7-33.4s-19.7-15.5-24.3-24.3s-6.3,8.5,0.9,15.7s14.3,9.9,17.5,20.5s0.3,13.3,1.5,22.5s3.3,9.6,1.1,14.6
		s-4.5-4.4-17.6-15s-34.8-12.3-53.2-14.2s-39.8-0.2-54.9-21.3s-32.1-19.4-49.4-31.1s-39.4-16.7-49.8-38.9s-69.8-29.1-90.3-11.6
		s-13.3,14.7,5.9,8s39.8-9.8,54.6-2s19.4,22,28.9,28.6s40.3,22.4,53.8,31s24.3,9.9,32.7,21.8s7.8,19.4,40.6,25.8s42.9,0.9,56.9,7.4
		s22,10.5,28.1,17.4s9,14.2,22,15s29.5,6.7,36.8,8.3s9.7,1.1,13,6.3s-0.6,7.6-16.4,4s-22.3-3.9-38.3-6.5s-16.5-10.4-24.2-15.4
		s-15.4-0.2-10.3,6.5s15.4,10.1,13.2,15.1s-12.2,5-25.4,9.7s-28.2,12.4-32.2,24.8c-3.9,12.4-1.5,26.2-13.1,33.5s-17.8,0.4-34.3,9.9
		s-26.4,23.9-37.9,25.7s-42.8,3.6-49.3-6.8s-24,13.3-37.3,18.1s-21.3,6.2-20.1,15.4s9.6,14.1,16.5,10.3c11.4-6.3-1.7-7,12.5-16
		s14-7.9,19.8-14.3s7.9,4,21.6,7.1s18.4,1.9,28.5,0.9s23.8-2.4,17.3,1.7s-13.5,5.8-29.7,18.7s-14.9,22-37.1,27s-29.6,23.2-45.3,24
		s-27.5-0.7-43.1,4.6s-42.6-21.7-58.2-16.4s-32.6,41.3-45.6,54.9c-13.7,14.3-21.4,26.1-36,27.2s-22.4,5.7-21.4,11.7
		c0.9,5.7,4.6,8.8,13,6.3s10.4-2.1,16.8-10.6s21.4-11.7,30.1-20.8s9.4-9.8,21.9-28.2c11.6-17.3,15.8-30.7,28.2-26.8
		s30.6,21.3,47.1,21.7s17.3-8.2,34.6-6.5s20.4-2,32.8-8.1s22.9-18,37.7-20.2s21.5-11.7,29.7-18.7s12.7-17,28.5-23.4
		s37.5-9.2,56.5-24.8s17.4-18.2,35.5-25.1s31.8-18.2,45-32.9s10.1-15.4,18.8-14.5s15.2,1.2,22.6-7s9.4-12.3,23.2-14.6
		s16,12.5,32.2,13.9s18.6,0.9,28.7-4.6s9.7,1.1,6.5,10.3c-3.2,9.2-1.2,15.2-7.7,19.3c0,0-14-6.5-26.1,2.9s-24,13.4-36.3,13.9
		s-29.8,14.3-28.2,26.8s9.2,13.1,14.7,13.3s6.8-10.6,12.1-19.4s3.9-12.4,17.5-13.7s19.4-7.8,29.3-12.2s17.3,1.7,17.6,5.1
		s-5.7,15.3-5.5,24.2s-1,38.5-15,41.9s-17,1.7-37.5,9.2s-56.9-0.2-66.3,12.1s-18,22.3-29,23.4s-40,10.2-51.1,15.4
		s-31,15.1-48.5,28.8c-13.4,10.5-24.4,7.3-33.5,6.2c-3.9-0.5-7.8,0.2-11.3,1.9c-3.4,1.7-8.6,3.9-13.3,4.2c-7.8,0.4-23.8,2.4-32.5,7
		s-33.1,19-44.2,24.3s-24.7,6.6-30.3,11.9s-5.3,18.7-6.4,28.4s-4.8,21-15.6,29.7s-23.7,26.7-26.4,38.3s-4.2,33.3-4.4,38.8
		s7-1.7,7.1-11.7s1.4-26.1,4.4-31.6c4.6-8.4,6.2-10.6,10-15.4c6.8-8.6,23.3-18.5,29.8-28.2c4.8-7.2,5.3-35.2,9-41
		c5.1-8.2,17.1-3.9,28.4-10.2s18.5-13.5,37.5-19.2s14-7.9,29.4-7.7s15.8-6.4,24.5-5.5s24.7,3.4,34.5-1s12.7-17,31.7-22.7
		s34.5-15.4,48.2-22.3s32.3-6,41.3-11.7s14.4-24.4,27.9-25.7s34.8,2.4,47.3-3.7s34.9-7.7,45.1-8.7s9.9,0,10.6,6.8s-9,30-4.5,44.3
		s-1.5,32.6-1,38c0.7,6.8-12,17.4-17,22c-8.1,7.4-21.1,5.2-32.1,14.8s-28.2,12.4-30.3,26.3s-12.1,19.4-8.8,29s9.9,19.9,18.2,17.4
		s7.9-10.4,3.7-21.3s-5.3-15.6-2.6-22.7s6.6-9.6,14.1-13.4s12-10,22.7-13.1s13.9-1.8,20.6-6.9s14.6-15.5,15.1-13.2
		s3.5,14.2,5.1,24.6c1.2,7.5-0.9,10.6-5.5,26.1s-9.8,31.4-11,48.4c-1.2,16.4,0.2,43.1,3.9,56.2c4.5,15.8,11.1,24,10.3,36.8
		c-0.4,5.5-23.5,24.8-26.7,38.5c-3.9,16.8-11.1,18.8-20,37c-9.8,19.9-32.7,22.4-34.8,46.3c-2.1,23.9,1.1,39-0.6,56.3
		s4.9,7.7,5.8,3.5s2.2-9.5,2.8-27s-4.3-29.7,1-38.5s19.3-16.6,23-23.5s6.6-1,6.4,5.9c-0.3,11.6-6.4,10-11.4,19.4
		c-4.6,8.6-6.3,19.7-2.4,27.2s13.8,21.9,27.7,24s22.8,1.8,27.5,10.6s-2.4,20.5,5.9,27.9s8.8,5.3,9.5,16.5s1.1,58.8-7.9,69
		s-27.2,22.6-28.5,37.8s17.7,53.8,19,67.3s8.8,9.8,12.1,5s3.9-12.4-2-20.4s-15.5-24.5-17-37s-4.3-15.3,0.8-23s20.5-17.5,24.1-23.3
		s5.7-25.3,7.8-39.2s4.8-31,1.3-45c-1.5-6.1-10.6-12.6-10.1-18.9c0.2-4.2,3.7-7.4,7.9-7.2c2.6,0.1,4.9,1.5,6.2,3.8
		c3.7,5.8,3.7,13,6.9,28.1c3,14.3,13.2,15.1,16.3,25.8s6.7,19.2,6.3,25.8s3.9-0.3,3.8-4.7s0.6-9.8-2-18.1s-3.7-13-11.2-21.8
		c-5.2-6.1-4.1-13.6-6.1-24s-3.9-16.4-9-23.1s-14.5-4.4-21.5-12.6s-18.1-12.9-21.4-22.5s-17.8-18.2-19-27.4s-5.4-21.3-4-32
		s7-13.5,10.3-18.3s6.5-12.3,10.6-24.8c2.3-6.9,9.4-13,20.1-11.7s26.8,9.1,33.3,19.4s7.6,24.9,15,41c7.4,16.1,11.4,18.1,4.4,44.1
		s-6.2,37.3-3,52.4s10.7,45.5,21.8,64.7s12.7,31.6,21.7,45.8s11.4,15,14.6,30s35.6,60.9,36,78.7s-0.7,27.5,3.8,41.8
		s14,36.3,15.3,54.3s10.8,62.1,17.9,78c0,0,2.9,8.6,5.8,25.9s5.2,10.9,2.4,37.8s-17.6,104.3-9.2,127.1c9.2,25-9.8,151.9-16.6,169
		s-19.8,16.8-20,27.6s5.2,7.7,9.4,10.4c7.8,5.1,17.4-2.2,18.7-14.1s7.3-36.5,8.8-57s18-84.8,12.5-129.2s18.5-154.9,14.5-170.1
		c-2.2-8.4,14.9,11.1,30.9,16.8c13.8,4.9,29.2,9.9,14.3-0.2c-8-5.4-15.5-11.4-22.5-18L925,1521.6z M478.5,573.3
		c-8.2,4.3-16.8,7.9-25.7,10.8c-2.3,0.6-5.3-1.2-6.6-4.8s3.8-12.6,9.3-16.7c8-5.9,23.6-12.5,34.5-11
		C502.9,553.3,488.6,567.8,478.5,573.3L478.5,573.3z M578,495.2c-2.4,3.2-6.9,6.2-11.5,11.8c-4.8,5.9-11.7,12.8-18.9,20
		s-17.2,12.7-24.7,16.5c-5.2,2.6-10.4,2.1-12.4-3.9c-1.4-4.3,9.2-21.1,12.2-29.3c4.8-13.2,20.3-16.4,26.8-20.5
		c3.6-2.3,13.9-6.6,20.5-7.5C578,481.1,584.4,486.7,578,495.2L578,495.2z M617.3,483c-1.3,0.8-7.3,2.8-12.2,5s-9.9,0-9.9,0
		c-3.2-0.7-0.9-5.7,4-7.9s19.3-2.3,19.3-2.3C623.5,480,618.5,482.2,617.3,483z M675.4,1065.9c5.3,7.5,7.9,15.6,0.9,17.8
		c-7.2,2.2-12.8-1.9-17.9-7c-7.2-7.2-14.4-12.7-9.8-23.8C651.4,1046.1,670,1058.4,675.4,1065.9L675.4,1065.9z M786.7,569.3
		c4,2,9.6,11.8,11.8,16.7c1.5,3.4,1.2,5.8-0.3,7.1c-1.2,1-2.8,1.1-4.2,0.3c-4.9-2.5-8.6-6.8-10.4-12
		C780.3,571.9,782.7,567.3,786.7,569.3z M754.9,529.7c6.6,14.8,11.5,36.9,16.3,50.1s14.5,18.8,23.7,31.9c6.5,9.2,8.4,34.8,4,67.1
		c-0.3,1.9-1.5,3.4-3.4,3.2c-3.5-0.4-7.1-1-10.5-1.8c-14.7-3.3-24.7,6.6-42.5-7.4c-17.7-13.8-27.3-6.2-35.3-10.2
		c-4-2,4-17.9,3.8-31.2s-7.4-16-2.4-38.1s3.8-26.8,11.3-35s9.1-15.6,7.1-21.6s-7.4-16-3.9-21.9S748.3,514.9,754.9,529.7L754.9,529.7
		z M773.9,372.5c-1,4.3-5.6,29.7-6.7,39.4c-0.8,6.8-11.7,27.1-20.3,36.6c-2.8,3.1-7.5,3.5-10.8,0.9c-1.4-1.1-2.9-1.9-4.5-2.5
		c-7.1-2.7-14.9,2.2-16.8-3.8s-1.2-19.1,1-24.1s11.8-8.4,13.3-14.7s-2-10.4,4.7-15.5s12.2-5,19.8-14.3s10.1-14.4,14.6-15.5
		C772.8,357.9,775.8,364.1,773.9,372.5L773.9,372.5z M735.4,371.5c-3.3,4.8-11.7,2.9-16.5,9.5c-3.5,4.8-2.8,17-5.3,23.9
		c-1.9,5.4-9.9,4.7-10.9-0.9v-0.2c-0.9-5.7,0.9-18.6,3.1-23.6s10.7-13,14.3-14.4s12.8-12.6,16.8-20.5s10.9-14.1,12.8-12.6
		s1,10.2-4,17.9S738.7,366.8,735.4,371.5L735.4,371.5z M784.5,296.4c0.3,3.4-3.4,10.3-5.6,19.7s-1,14.2-2.4,20.5s-10.5,12-14.3,14.4
		s-4.5,0.1-5-2.2s1.9-8.4,1.9-8.4c7.3-12.7,11-24,14.7-35.4S784.1,293,784.5,296.4L784.5,296.4z M759.2,300.6
		c-6.1,7.5-15.1,13.1-19.7,18.8s-9.5,22.2-12.7,27s-8.2,7-11.1,5.2c-2-1.3-2.6-4-1.3-6c0.2-0.3,0.4-0.5,0.6-0.7c2-2.3,5-4.9,7.6-9.3
		c3.5-5.8,8.3-16.9,11.2-25.1s5.7-11,10.1-15.4c7.2-7.2,9.8-13.3,10.5-22c0.6-7.6,7.3-12.7,10.6-7.6
		C770.4,274.1,765.3,293.2,759.2,300.6L759.2,300.6z M799,198c2.8,7.3,2.9,11.7,4.4,19.8s4.3,15.4,2.4,23.8s-3.1,13.7-6.4,18.5
		c-3.3,4.8-5,12.1-9.1,15.6s-9.8,4.4-11.8-1.6l-4.5-14.3c-3.3-9.6-0.1-14.4,0-24.3s5.8-20.8,10.1-29.8S795.8,189.7,799,198z"/>
</g>
<circle class="st1" cx="1110.1" cy="202.5" r="200"/>
<g>
	<defs>
		<circle id="SVGID_1_" cx="1110.1" cy="202.5" r="200"/>
	</defs>
	<clipPath id="SVGID_2_">
		<use xlink:href="#SVGID_1_"  style="overflow:visible;"/>
	</clipPath>
	<g class="st2">
		<path class="st0" d="M1488.8,294.5c-5.3-4.4-10.5-5.3-17.5-5.3s-14.9-4.4-16.7-8.8s5.3-7.9,8.8-12.3s5.3-8.8,10.5-13.1
			c5.3-4.4,5.6-3.9,8.8-7.9c3.5-4.4-1.8-11.4-7-10.5c-4.4,0.7-6.1,5.3-7.9,12.3s-3.5,7-7.9,12.3c-4.4,5.3-7,11.4-10.5,15.8
			s-4.4,3.5-11.4,1.8s-14.9-1.8-13.1-6.1s-3.5-11.4-7-16.7c-3.5-5.3-12.8-9-9.6-11.4c3.5-2.6,1.8-7,4.4-10.5s7.9-6.1,6.1-12.3
			c-1.7-6-8.8-5.3-11.4-0.9s0.9,7.9,0,14s-2.6,6.1-7.9,7.9s-1.8,5.3-4.4,5.3s-2.6,1.8-7,5.3c-4.4,3.5-7,3.5-15.8,0
			c-8.8-3.5-3.5-5.3-8.8-10.5s-9.6-7-5.3-11.4s2.6-6.1,8.8-10.5s8.6-4.5,11.4-7.9c4.4-5.3,2-7.8,4.4-14c2.6-7,15.7-13,10.5-12.3
			c-6.1,0.9-11.4,5.3-14,10.5c-4.2,8.4-3.5,12.3-7.9,14.9s-7,2.6-10.5,6.1s-7.9,7.9-5.3,2.6s4.4-13.1,0.9-16.7
			c-2.5-2.5-5.2-3.4-7.7-3c1.7-4.4,1.6-6.6-1.1-9.3c-3.2-3.4-8.5-3.6-11.9-0.4c-0.1,0.1-0.3,0.3-0.4,0.4c-3.5,3.5-1.8,13.1,0,19.3
			s-1.8,16.6-5.3,19.3s-6.1,10.5-11.4,9.6s-15.8-5.3-18.4-9.6s3.5-8.8,6.1-15.8s1.8-6.1,3.5-11.4s4.4-6.1,7-10.5s2.6-14.9,0-20.2
			s-8.1-6.9-13.2-5.3c-5.3,1.8-7.9,8.8-7,18.4s6.1,10.5,5.3,17.5s-6.1,13.1-10.5,17.5s-0.9,9.6-5.3,9.6s-13.1-1.8-14.9-6.1
			s-5.3-3.5-7-9.6s1.8-7.9,7.9-10.5s11.4-3.5,13.2-10.5s-0.4-11.5-5.3-13.1c-5.3-1.8-10.5,1.8-13.2,8.8s-7.9,11.4-11.4,17.5
			s5.3,12.3,3.5,15.8s-5.3,1.8-10.5,0s-6.1-4.4-4.4-7.9s5.3-4.4,6.1-7.9s0.9-7.9-4.4-8.8s-3.5,1.8-7.9,6.1s0,13.1-2.6,14.9
			s-10.5,2.6-13.2,0s-0.9-6.1-2.6-12.3s-7.9-10.5-14-16.6c-2.8-2.7-5.9-5-9.2-7c0.9-2.2,1.3-4.6,1.3-7c0-5.3-4.4-14-14.9-13.1
			c-2.7,0.3-5.3,1.5-7.3,3.4c-3.4-2-6.8-3.4-9.3-3.4c-6.2,0-8.8,4.4-8.8,9.6c0,3.5,2.3,6.1,6.5,8.1c-0.4,0.5-0.8,1-1.2,1.5
			c-4.9,5.7-4.4,15.8-10.5,20.2s-5.3,9.6-7.9,10.5s-14-0.9-17.5,0s-7.9-0.9-5.3-2.6s3.5-7.9,7-9.6s4.4-3.5,4.4-7s-1.8-7-6.1-7
			s-6.1,3.5-7.9,10.5s-1.8,11.4-5.3,11.4s-21-7-26.3-9.6s-9.6-7-16.7-12.3s-16.7-8.8-16.7-13.1s3.5-7.9,7-11.4s7-5.3,11.4-7
			s5.4,3.2,10.5,1.8c6.1-1.8,9.6-2.6,11.4-9.6s-5.2-14-9.6-14c-8.8,0-11.9,2.8-18.4,7.9c-7.9,6.1-10.5,12.3-14.9,17.5
			s-3.5,9.6-3.5,14s-5.3,6.1-11.4,3.5s-10.5-4.4-8.8-8.8s10.5-7,16.7-14s0.3-11.9,6.1-16.6c4.4-3.5,6.1-2.6,12.3-6.1
			s6.9-8.7,9.6-12.3s5.3-7,11.4-8.8s8.8-6.1,7.9-10.5c-0.7-3.4-6.1-8.8-13.2-5.3c-8.9,4.5-11.4,14.9-15.8,22.8s-15.2,6.4-20.2,11.4
			c-7,7-6.1,13.1-9.6,20.1c-3.1,6.1-14,13.1-25.4,11.4s-17.5,0-24.5,0s-7.9-3.6-13.1-8.8s-9.6-8.8-14.9-10.5s-9.6-1.8-9.6-7
			s3.5-3.5,7.9-7s7-5.3,11.4-5.3s8.5-2.7,10.5-9.6c1.8-6.1-5.2-14.6-12.3-14c-10.5,0.9-15.8,13.2-19.3,21s-5.3,11.4-8.8,11.4
			s-3.5-3.5-8.8-7.9s-13.2-2.6-16.7-4.4s1.4-5,2.6-8.8c1.8-5.3,3.4,0.2,10.5-6.1c7.9-7,2.6-15.8-0.9-18.4c-1.5-1.2-3.4-2-5.4-2.1
			c-0.3-3.9-2.6-7.4-6-9.3c-4.4-2.6-7.6-3.7-13.2,0c-5.3,3.5-3.5,10.5-8.8,14c-4.3,3-9,5.4-14,7c-5.3,1.8-6.1,0.9-7.9-3.5
			s0.9-3.5,1.8-10.5s3.7-10.2,7-21c1.3-4.2,3.9-7.4,8.8-12.3c7-7,4.4-19.3,1.8-23.7s-5.3-7-12.3-6.1c-7,0.9-10.5,9.6-10.5,16.7
			s5.3,15.8,1.8,19.3s-5.3,29-7.9,32.5s-7,7.9-11.4,3.5s-7-7-11.4-6.1s-5.3,7.9-11.4,5.3s-5.3-7-7-8.8s-7-5.3-8.8-7.9
			s1.8-7.9,4.4-11.4s2.6-17.5,0-23.7s-13.2-7-19.3-7s-10.5,10.5-7.9,16.7s9.6,6.1,11.4,10.5s2.6,9.6-1.8,12.3s-35.9-9.6-35.9-9.6
			 M736.8,82.4c7,0.9,7.9-3.5,16.7-0.9s10.5-0.9,17.5-2.6s15.8,4.4,21,5.3s9.6,4.4,9.6,9.7s-5.3,7.9-9.6,14.9s-6.1,10.5-9.6,14
			s-9.6,3.5-15.8,7s-8.8,11.4-15.8,16.6s-8.8,10.5-5.3,17.5s14,4.4,19.3-0.9s0.9-15.8,6.1-21s7-5.3,15.8-8.8s6.1-7,8.8-13.1
			s6.1-12.3,10.5-15.8s5.3,0.9,13.1,3.5s7.9-4.4,16.7-5.3s7,1.8,10.5,3.5s0,6.1-1.8,8.8s-9.6,1.8-8.8,8.8s7,7,13.2,2.6
			s1.8-14,4.4-16.7s11.5-2.1,16.7,4.4c3.5,4.4,7.7,9.1,5.3,13.2c-2.6,4.4-4.4,8.8-8.8,7.9c-11.2-2.3-10.5,7-6.1,7.9
			c6.5,1.3,11.4-4.4,14.9-9.6s3.5-6.1,7-6.1c6.2,0,11,13.6,3.5,21c-4.4,4.4-9.6-4.4-15.8-2.6c-4.3,1.2-7.9,5.3-5.3,9.6
			c1.8,3.1,7,6.1,13.1,5.3s11.4-3.5,14.9-10.5c3.3-6.7,1.8-15.8,0.9-20.2s3.5-6.1,7-3.5c4.7,3.5,1.8,13.2,1.8,17.5
			s3.6,11.4,10.6,7.9c4-2,4.4-6.1,1.8-11.4s-7.9-7.9-6.1-10.5c2.2-3.3,7,0.9,12.3,6.1s13.1,7.9,18.4,14s14,4.4,14.9,7.9
			s-1.8,4.4-6.1,7s-14,3.5-20.2,2.6s-13.2-3.5-16.7,0s-4.9,9.8,1.8,12.3c7,2.6,9.6-1.8,16.7-3.5s16.7-1.8,24.5-6.1s14.9-7,19.3-2.6
			s3.5,12.3,0,18.4s0,11.4,1.8,18.4s-3.5,7.9-8.8,9.6s-12.7,1.8-14,7.9c-1.8,7.9,4.4,11.4,10.5,9.6s5.3-7,10.5-11.4s9.6-10.5,7-19.3
			s-3.5-10.6,0.9-14.9c5.3-5.3,3.5-14.9,8.8-15.8s13.2,8.8,14.9,12.3s1.8,13.1-3.5,17.5s-7.9,14-6.1,21.9s6.1,10.5,11.4,9.6
			s6.1-3.5,6.1-7.9s-7.9-9.6-7.9-14s1.8-9.6,5.3-7s5.3,7,7.9,8.8s0,7,2.6,10.5c1.2,1.5,3.6,1.4,6.3,0.5c1.3,4.3,8.9,6.1,12.1,2.2
			c3.5-4.4,1.8-4.4,5.3-6.1s5.3,0.9,3.5,3.5s-7,6.1-12.3,7s-11.4,7.9-7.9,13.1s8.8,3.5,14.9-0.9s4.4-6.1,8.8-12.3s5.3-11.4,5.3-20.1
			s-4.4-11.4,0-10.5s14.9,7,17.5,9.6s5.3,8.8,0,14s-3.7,8.1-1.8,6.1c1.8-1.8,4.6-2.5,8.8-8.8c3.5-5.3,0-9.6,1.8-8.8s7.9,1.8,14,5.3
			s1.8,6.1,0,9.6s-7.9,2.6-9.6,5.3s-2.6,7,0,9.6s7.9,2.6,9.6-2.6s3.5-6.1,6.1-7s5.3,4.4,5.3,10.5s-1.8,12.3,0,16.7s3.5,7,4.4,13.1
			s11.4,10.5,15.8,9.6s6.1-4.4,4.4-9.6s-3.5-5.3-9.6-6.1s-7-7-7.9-11.4c-0.9-4.4-0.9-14,0-17.5s4.4-4.4,7.9-2.6s6.1,7.9,7.9,13.1
			s2.6,5.3,7,7.9c4.4,2.6,7,5.3,8.8,9.6s8.8,10.5,13.2,10.5c4.3,0.2,8-2.8,8.8-7c0.9-4.4,0-6.1-7-11.4c-7-5.3-6.1-2.6-11.4-1.8
			s-10.5-5.3-11.4-9.6s-3.5-7.9-7-12.3s-6.1-7-5.3-9.6s6.1-3.5,7.9-3.5s7.9,6.1,11.4,8.8s0.9,7,2.6,8.8s4.4-6.1,2.6-8.8
			s-7-4.4-4.4-7.9s21,0.9,28,3.5s2.6,7,5.3,13.1s5.3,6.1,7.9,13.1s1.8,9.6,4.4,15.8s11.4,3.5,14-0.9c1.4-2.4,1.1-5.3-0.4-8.1
			c-0.3-0.4-0.6-0.9-0.8-1.4c-1.3-2-3-3.8-4.9-5.3c-5.3-4.4-7-5.3-11.4-9.6s-5.3-11.4-1.8-13.1s14.9,1.8,17.5,5.3s6.1,8.8,4.4,12.3
			c-1.7,3.3-5.6,6.6-3.9,10.6c0.3,0.5,0.6,1,0.8,1.4c2.7,3.5,7.6,1.9,10.1,0.2c2.5-1.7,3.5-7,0-12.3s-2.6-8.8,0-9.6
			s4.4,3.5,10.5,2.6s13.1,0,20.2,1.8s7,8.8,7,16.6s-3.5,12.3-6.1,17.5s0.9,11.4,7.9,18.4s7,12.3,10.5,17.5s7.9,6.1,12.3,6.1
			s6.1-2.6,0.9-3.5s-6.1-4.4-11.4-14s-7-7-10.5-13.1s-0.9-10.5,2.6-14.9s3.5-7.9,3.5-12.3c0-4.4,5.3-9.7,9.6-11.4s13.1,6.1,27.2,7.9
			s26.3-1.8,24.5,1.8s-3.5,2.6-4.4,6.1s-2.6,7-6.1,6.1s-7-4.4-9.6-7c-3.8-3.9-10-3.9-13.8-0.2c-0.1,0.1-0.1,0.1-0.2,0.2
			c-3.5,3.5-2.6,9.6,0.9,13.1c5.3,5.3,13.2,1.8,17.5,0.9s5.3,2.6,10.5,0.9s5.3-6.2,6.1-10.5s4.4-6.1,7.9-8.8
			c3.5-2.6,12.3,2.6,16.7,2.6s14.9,2.6,13.2,4.4s-6.2,1.9-10.5,2.6c-5.3,0.9-6.6,4.2-7,6.1c-0.9,4.4,3.6-1.9,7.9-2.6
			c5.3-0.9,5.3,1.8,11.4,0.9s8.8-5.3,11.4-4.4s0.3,6.3,1.8,10.5c1.8,5.3,2.6,6.1,5.3,7.9c2.2,1.5-1.8-4.4-1.8-9.6
			c0-3.5,3.5-3.5,9.6-1.8s7,4.4,15.8,7s15.8,1.8,16.7,4.4s0,9.6,0,15.8s4.5,10.8,7,11.4c3.5,0.9,7.9,0.1,7.9-5.3
			c0-3.5-3.5-5.3-6.1-6.1c-4.8-1.6-5.3-5.3-3.5-8.8s2.6-3.5,8.8,0s7,0,12.3,0s14,3.5,13.2,6.1s-3.5,1.8-5.3,5.3s0,8.8-3.5,8.8
			s-8.3,1.9-7,7c1.8,7,8.8,4.4,12.3,2.6c4-2,2.6-9.6,3.5-13.1s5.3-7,8.8-7s-3.5,5.3-2.6,13.1s9.6,9.6,11.4,7s-0.9-5.3-4.4-7.9
			s-0.9-7.9,2.6-9.6s7,2.6,7,2.6"/>
		<path class="st0" d="M896.4,108.6c-3.5-0.9-7.9-5.3-9.6-7.9s5.3-4.4,8.8-6.1c1.9-0.9,3.2-0.1,5.2,0.4
			C899.2,101.4,898.8,109.3,896.4,108.6L896.4,108.6z M1026.1,206.8c0-0.1,0.1-0.2,0.1-0.2L1026.1,206.8z"/>
		<path class="st0" d="M1033.1,198.9c-0.9,3.5-2.6,6.1-4.4,7s-1.8-0.7-2.5,0.6c0.3-0.7,0.9-2.7-1.9-4.1c-3.5-1.8-2.6-0.9-5.3-3.5
			s-4.4-5.3-3.5-9.6s-0.9-5.3-0.9-7.9s1.8-2.6,4.4-0.9s13.1,7,14,9.6C1033.9,193,1033.9,196.1,1033.1,198.9z M1038,211
			c0.2-6.1-1.5-14.8,0.3-17.3c2.6-3.5,7.9-1.8,8.8,4.4C1048,204,1044.7,208.3,1038,211z M1198.7,213c-9.6-1.8-25.4-2.6-31.6-2.6
			s-10.5,3.5-11.4,0s2.6-3.5,5.3-6.1s2.6-3.5,4.4-8.8s3.5-2.6,8.8-4.4s10.5,0.8,14.9-0.9c1.2-0.4,2.3-1,3.3-1.7
			c11.6,5.4,18.6,16.7,18.6,21C1211,214.7,1208.4,214.7,1198.7,213z M1344.2,225.2c-2.6,3.5-4.4-1.8-4.4-5.3c0-1.9,1-3.5,2.5-5.9
			C1343.6,218.5,1345.8,223.1,1344.2,225.2z"/>
	</g>
</g>
<circle class="st3" cx="1110.1" cy="202.5" r="200"/>
<circle class="st1" cx="201.1" cy="1329" r="200"/>
<g>
	<defs>
		<circle id="SVGID_3_" cx="201.1" cy="1329" r="200"/>
	</defs>
	<clipPath id="SVGID_4_">
		<use xlink:href="#SVGID_3_"  style="overflow:visible;"/>
	</clipPath>
	<g class="st4">
		<path class="st0" d="M366.2,1077c0,0-59.6,85-74.8,112.7s-24.6,48.2-42.3,56.3c-12.5,5.7-37.3,19.4-42.2,36.4
			c-5.2,17.8,5.6,32.8,22.6,46.2c22.7,17.8,53.6,25.4,72.6,15.5c15-7.8,21.5-30.7,18.4-51s11.5-44.1,24.3-64.8
			s72.4-109.7,88.6-131.2l0,0"/>
		<path class="st0" d="M234.4,1614c0,0-19.9-126.6-28-139.7c0,0,7.6-35.3,31-51.3s52.1-45.7,22.1-72.4
			c-23.2-20.7-47.7-33.9-77.1-26.1c-26.1,6.9-1.4,52.1-15.8,89.2s-17.7,36.6-24.2,40.3 M105.9,1595.9c0,0-2.8-74.6,0.1-104.6
			s-8.4-53.5-16.9-63.3c0,0-15.8-28.7-25.9-32.1 M166.6,1413.7c0,0-24.1-40.5-52.6-59s-52.3-4.7-57.8,1.2s-22.4,18-18.8,39.7
			s23.2,32.4,23.7,39"/>
		<path class="st0" d="M100.2,1447.5c-10.4,7.8-19,27.1-25.2,47.4s-19.4,34.4-30.5,33.4c-6.9-0.7-13.4-3.4-18.8-7.9
			c0,0-20.8-17-1.8-39.3s42-50.4,46.6-63c4.8-13,2-14.3,2-14.3 M204.3,1498.5c0,0-2.6-9.6,2.1-24.2 M220.4,1441.2
			c0,0,24.8,11.4,20.4,38s-20.4,30.9-23.9,35.4 M223.9,1298c0,0,30-6.4,64.1,29.5 M193.9,1336.8c0,0,13.3,27.7,61.4,39.1"/>
	</g>
</g>
<g>
	<circle class="st3" cx="201.1" cy="1329" r="200"/>
	<path class="st0" d="M401.1,1329h294.7"/>
</g>
<circle class="st1" cx="206.1" cy="3000.5" r="200"/>
<g>
	<defs>
		<circle id="SVGID_5_" cx="206.1" cy="3000.5" r="200"/>
	</defs>
	<clipPath id="SVGID_6_">
		<use xlink:href="#SVGID_5_"  style="overflow:visible;"/>
	</clipPath>
	<g class="st5">
		<g>
			<g>
				<path id="N" class="st0" d="M97.7,2716.7l77.5,209l-55.9-212.1"/>
			</g>
			<g>
				<path id="O" class="st0" d="M62.8,2902.9c0,0,2.7-5,9.6-3.5s20.5,12.1,27.3,16.1s4.7,11.6,2.6,17.2c-1.7,4.8-5.3,8.8-9.9,11.1
					c-3.8,2.1-8.4,1.9-12-0.4c-6.2-4-22.4-12.2-26-15.5s-1.2-10.6-1.2-10.6"/>
			</g>
			<g>
				<path id="P" class="st0" d="M95.1,2942c0,0,2.3,2.6,4.2,2s7.9-9.9,7.4-13s-2.5-3.8-2.5-3.8"/>
			</g>
			<g>
				<path id="Q" class="st0" d="M87.1,2945.2c-0.3,1.7,0.1,3.4,1.2,4.7c1.8,2.6,18,10.8,27.2,18.7s12.4,7.4,16.2,6.3
					c3-0.9,9.1-7.3,11.2-12.3s3-14.4,0-17.7c-4.9-5.2-9.3-4.8-17.4-10.1c-7.1-4.7-14.2-18.2-21.8-14.4"/>
			</g>
			<g>
				<path id="R" class="st0" d="M144.2,2947.3c0,0,8.2-2.7,13.1,3.8s17.7,19,22.7,21.7s7.4,6.6,7.2,10.4s-4.9,15-12.7,18.5
					s-20-8.3-23.1-10.3s-18.1-8.2-19.2-11.4c0,0-1.3-0.7-1.4-4.8"/>
			</g>
			<g>
				<path id="S" class="st0" d="M186.8,2980.5c0,0-0.2-1.1,3.6-1s28.2,6.7,38.9,8.3s9.9,7.3,10.4,10.5s-2,20.2-8.4,22.5
					s-10.7-1-15.1-2.4s-23.2-5.2-30.8-4.9s-11.8-4.2-12.9-11.2"/>
			</g>
			<g>
				<path id="T" class="st0" d="M186.5,2986.3c0,0,2.4,1.4,0.4,5.7s-4.1,8.1-6.7,9.3c-1.8,0.8-3.8-0.8-3.8-0.8"/>
			</g>
			<g>
				<path id="U" class="st0" d="M239.1,2993.9c1.3-2.1,3.6-3.5,6.1-3.6c4.4-0.5,18.9,1.9,31.5,3s20.1,3.2,27,4.8s11.1,8.6,10.8,18.1
					c-0.3,8.3-1.2,15.8-8.3,21.2c-4.3,3.3-61.2-6.6-65.6-8s-8.1-4.1-9.2-8.6"/>
			</g>
			<g>
				<path id="V" class="st0" d="M239.8,2998.3c0,0,2.5,0.1,3,5.8c0.2,4.7-1.1,9.3-3.6,13.2c-1.3,1.9-4.7,1.2-4.7,1.2"/>
			</g>
			<g>
				<path id="W" class="st0" d="M314.1,3010.1c0,0,29.4,9.5,34,6.5s7.8-23.8,1.2-35.4s0.5-15.2,4.7-7.4s13.6,27.7,9.9,44
					s51,27.1,48.7,18.8s0.1-20.3-3.6-41.3s13-27.4,19.1-39.8s-8-25-18.1-44.3s-30.7-27-24-54.6"/>
			</g>
			<g>
				<path id="X" class="st0" d="M313.4,3030.1c0,0,48.3,11.7,59.3,24.1s30.8,42.2,14,53s-20.9,37.2-17.9,58.9"/>
			</g>
			<g>
				<path id="Y" class="st0" d="M506.6,2896.2c0,0,3.8,17.2-13.9,36.9s-16.1,27.3-7,35.8s16.8,27.2,17.5,43.6s29.3,13.7,48.5,6.8
					s51.9,0.6,43.6-33.3s-17.7-56.3-4.3-76.1s50.3-26.1,56.3-34.8"/>
			</g>
			<g>
				<path id="Z" class="st0" d="M646.4,2899.8c0,0-36.2,20.3-39.8,33.4s8.8,38.9,8.6,61.1s-1.3,38.6-32.5,41.9s17.1,17.1,20.8,20.4
					s29.1,18.7,36,39.9"/>
			</g>
			<g>
				<path id="a" class="st0" d="M509.8,3111.4c-6.1-6.4-7-16.2-2.3-23.6c2.6-4-40.8-17-40.9-23.9c-0.1-13.9,12.7-19.8,21.4-13.8
					s17.1,16.4,45.5,20.6c19.9,2.9,6.5,31.9,36.1,53.1c14.7,10.6-17.1,17.1-42.7,8C507.6,3124.8,523.7,3126,509.8,3111.4z"/>
			</g>
			<g>
				<path id="b" class="st0" d="M453.5,3169c0.6,0,2.3-10.7,2.5-36.6s5.2-40.3,11.3-33.8s18.1,7,36.3,28.5s-2.2,7.5,18.4,18.4
					s60.7,0.9,70,7.5s34.2,16.4,34.2,16.4"/>
			</g>
			<g>
				<path id="c" class="st0" d="M583.5,3105.9c-8.6-6.6-15.7-10.6-16.9-22.8c-0.9-8.2-0.1-16.8-11.2-23.2
					c-21.1-12.1-37.8-4.5-40.7-12.2s11.4-17.3,26.3-9.9s37,25.1,46.5,28.8c10.6,4.2,16.1,10.7,30,28.9s-1,27.2-14.6,19.7
					C592.1,3109.6,593.7,3113.7,583.5,3105.9L583.5,3105.9z"/>
			</g>
			<g>
				<path id="d" class="st0" d="M452.3,2858.2c0,0-20.4,59.4-15.3,76.7s14.3,25.8,27.2,0.9s13-26.8,13-26.8s10.9-22.4,5.2-39.7"/>
			</g>
			<g>
				<path id="e" class="st0" d="M410.8,3175.8c0.1-4.4,0.3-27.2,11.4-35.7s16.5-2,18.7,8.2s-3.8,17-1.1,31"/>
			</g>
			<g>
				<path id="f" class="st0" d="M393,3177.7c-0.6-1.9,0.4-29.7,4.7-42.9s20.4-22.1,13.6-26.7s-25,8-29.1,18s-5.5,13.1-4.6,40.4"/>
			</g>
			<g>
				<path id="g" class="st0" d="M411.5,2866.9c0,0-9.5,1.6-0.7,20.2s11.2,24.4,14.7,14.4S431.2,2865.1,411.5,2866.9L411.5,2866.9z"
					/>
			</g>
			<path class="st0" d="M42.9,3018.6c8,6,11,9.9,16.9,6.3s-4.9-23.6-42.8-26.8s-73.8-41.8-66.1-65s8.3-20.6,15.8-36.8
				s30.4-19.2,40.5-17.6s47.2,44.8,54.2,43c4.5-1.1,6.6-5.6,7.3-9.2c0.7-3.2-3.1-7.9-5.8-9.8c-6.9-4.8-21-15.1-30.3-25.6
				c-10.9-12.2-20.2-37.3-22.4-47.6c-1.6-7.6-0.4-14.7-0.7-17.1c-0.3-3.1-0.1-6.1-3.6-7.1c-5-1.4-5.3,8-4.3,15s5.2,13.5,5,19.2
				s-4.7,6.8-16.3-5s-25-28.1-23.6-30.6s6.4-1,15.3-2.6s17.1-0.7,26-1s15.2-0.7,23.6-5.5s6.4-1.7,16.9,4.4s8.5,11.7,16.6,14.5
				s16.1-8.9,20.2-15.8s8.1-15.5-0.6-20.3s-13.1,11.6-13.9,17.9s-4.3,13.8-9,4.8s-11.7-10.5-14.7-13.8s-3.7-3.9,3-14.4
				s15.9-19.7,18.6-24s-7.1-12.9-13.6-8.1s-13.4,21.7-16.9,31.7s-9.4,14.2-36.6,15.8c-2.7,0.1-5.3,0.3-7.7,0.6
				c-0.9-4.8-6.2-11.6-15.2-16.6c-11.2-6.1-22.3-14.1-26.1-14.2s-6.2-4.6-5.5-6.5s9-4.1,8-11.8s8.9-16.7,11.9-11.5s3.6,6.4,7.1,12.9
				s-0.2,5.7-0.4,10.1s5.6,2.7,6.4-1s2.8-8.1-0.8-12.1s-4.7-10.9-1.6-9.6s8.8,2.8,12.6,1.7s1.6-8.2-7.3-8.5s-14.5-2.4-12.4-8
				s6.9-15,12.1-21.1s6.6-8.6,9.4-14.9s2.6-11.2,5.7-18.8c4.2-10,4.8-6.1,6.8-13.7c1.5-5.6-4.1-9.6-8-7.9c-3.1,1.4-6,8-4.4,18.8
				s-13.8,33.1-18.2,31c-1.6-0.8-3.7-3.9-7.3-7.9c-3.1-3.3-2.2-8.9-4.4-18.5s-2.9-7.7-6.5-12.9s-10.7-1-11.5,4s7.5,4.1,10.4,10.5
				s1.5,12.1,9.4,20.6s3.8,18.5-0.4,28.5s-13.1,12.2-15.9,20.3s-7.5,14.9-12.3,7.2s-4.6-14.1-5.7-18.6s2.3-10,5-17.5
				s1.7-12.6-1.3-17.1s-9.5,0.9-8.5,7.9s1.3,17.1-0.6,18.3s-2.4-3.9-4.7-10.3s-4.2-6.5-6.1-5.3s-0.3,7.6,4.6,14.7s4.9,5.9,7.6,16.7
				s10.7,18.7,7.5,21.1s-13.3,0.8-29.6-4.2s-25.4,1.6-32.3,0.8s-29.8-16.2-34.7-21.5s-13.7-23.9-16.6-31.6
				c-3.1-8.6-5.8-17.4-7.9-26.2c-1.1-5.1-7.4-6.6-10.8-0.4s7.1,15.4,14.2,28.3s7.6,17.4,16.6,31.6s41,23.6,35.8,25.3
				s-20.2,15.8-28.4,16.1s-6.8-5.9-9.2-8.6s-4.9-4.6-6.3,0.4s7.1,12.9,12.8,13.7s14.7-3.9,14-1.4s-4.6,11.1-9.3,13
				c-5.8,2.3-2.9,10.7,4.1,10.3s6.2-15,9-21.8s11.3-14.8,24.8-20s30.4,0.4,41.7,3.4c9.6,2.5,14.1,20.3,17.7,31.2
				c-1.6,0-3.3,0.1-4.9,0.3c-10.8,1.5-35.5,1.9-41.3,5.5s-10.3,6-16.7,6.4s-3.3,4.3,9.5,0.3s8.4-4.8,23-5.5
				c10.8-0.6,25.6,0.8,34.4,1.8c3.7,6.1,8.2,9.6,14.7,24c8.2,18,38.7,33.6,31.8,31.5s-9.4-1.6-15.6-5s-17.8,1.3-24.5-5.3
				s-12-1.7-17.5-5.7s-6.8-5.3-11.6-11.8s-21.8-9-28.1-9.8s-13.9-1.8-13.4,2.7s7,5.1,13.2,4.3c7.6-1,7.7-1.6,15.7,2.4
				s13,9.3,3.5,9.6s-15.9,3.2-28.7,5.3s-27.8-0.3-38.3-27.9c-7.2-19.1-12.7-17.5-16.9-24.6s-1.6-7.7-9.6-14.3s-14.6-16.3-22.6-24.2
				s-17.1-0.6-12.3,8.4s15.5,9.4,21.7,13.4s11.4,16.9,6.4,17.3s-31.7,2.1-36.7,0s-15.1-2.4-19.7,2.5s0.3,8.9,13.1,6.8
				s42.6-5.5,51.3-1.4s12.3,9.9,16.5,17.7s10.6,21.9,10.6,21.9s-0.2,4.4-10.3,4.7s-22.7-1.4-29.2,2.8s-27.6,11.1-38.3,10.7
				s-22.2,1.8-24.4,11.2s15.4,13.2,20.7,6.4s37.8-13.9,44.3-18.7s17.1,0,29.2-3.4s24,1.5,30.9,3s27.4-5.4,21.5-0.5
				s-14.2,8.4-22.5,10.6s-10.3,6-18.9,14.5s-13.7,12.8-13.7,12.8c-8.5,7.3-11.4,16.7-18.7,27.2s-14.8,23.5-12.5,30.6
				s18.5,12.7,16.1-8.3c-2-17.5,10.6-31.3,12-35.6s6.5,28.4,10,40.2c2.3,7.7,7.9,17.7,13.5,12.5c7.2-6.7-14.7-32.8-16-50.6
				s14.7-21.6,20.6-28.4s20.5-6.9,27.7-13.6s18.9-17.1,30.7-10.3s28.4,2.9,42.8,5.9s28,13,15.3,16.4s-22.5,27.1-34,29.8
				s-24.1-14.2-22-19.2s1.6-9.4-5.3-12.9s-9.9,10.4-4.5,20.7s28.6,14.9,28.4,20c-0.1,1.9-20.9,0.5-29.3,6.6
				c-7.8,5.6-17.2,1.9-24-0.8s-16.2-6.9-26.4-5.4s-9.3,11.7-2.9,11.3s6.4-3.6,27.8,1.6s24.7-0.4,35-4.5s30.6-5.3,24,1.5
				s-8.2,16.8-14.7,22.3s-20.6,8.8-28.3,13.6s-20.3,20.2-31,19.2s-30.6,7.8-25.4,19.4c6.2,13.5,31.4,6.2,41.5-9.3
				c5.8-8.9,11.8-15.4,19.2-5c9.1,12.8,44.4,25,16.2,7.5c-7.8-4.8-13.5-12.5-15.7-21.4c-1.7-7,16.1-7,27.1-13.6s13.2,3,21.6,16.6
				c5.8,9.4,18.5,17.9,29,24c6.9,4,14.2,7.1,21.9,9.3C16.8,3008.2,37.3,3014.5,42.9,3018.6L42.9,3018.6z M-41.5,2789.7
				c-4.3-4.6-9.4-20.6-7.4-23.7s8.2,0.9,13.8,4.3s14.8,10,18.4,15.8c0.7,1.2,1.3,2.1,1.6,2.8C-30.7,2791-38.3,2793.2-41.5,2789.7
				L-41.5,2789.7z"/>
			<g>
				<path class="st0" d="M62.8,2902.9c0,0,2.7-5,9.6-3.5s20.5,12.1,27.3,16.1s4.7,11.6,2.6,17.2c-1.7,4.8-5.3,8.8-9.9,11.1
					c-3.8,2.1-8.4,1.9-12-0.4c-6.2-4-22.4-12.2-26-15.5s-1.2-10.6-1.2-10.6"/>
			</g>
			<g>
				<path class="st0" d="M95.1,2942c0,0,2.3,2.6,4.2,2s7.9-9.9,7.4-13s-2.5-3.8-2.5-3.8"/>
			</g>
			<g>
				<path class="st0" d="M87.1,2945.2c-0.3,1.7,0.1,3.4,1.2,4.7c1.8,2.6,18,10.8,27.2,18.7s12.4,7.4,16.2,6.3
					c3-0.9,9.1-7.3,11.2-12.3s3-14.4,0-17.7c-4.9-5.2-9.3-4.8-17.4-10.1c-7.1-4.7-14.2-18.2-21.8-14.4"/>
			</g>
			<g>
				<path class="st0" d="M144.2,2947.3c0,0,8.2-2.7,13.1,3.8s17.7,19,22.7,21.7s7.4,6.6,7.2,10.4s-4.9,15-12.7,18.5
					s-20-8.3-23.1-10.3s-18.1-8.2-19.2-11.4c0,0-1.3-0.7-1.4-4.8"/>
			</g>
			<g>
				<path class="st0" d="M186.8,2980.5c0,0-0.2-1.1,3.6-1s28.2,6.7,38.9,8.3s9.9,7.3,10.4,10.5s-2,20.2-8.4,22.5s-10.7-1-15.1-2.4
					s-23.2-5.2-30.8-4.9s-11.8-4.2-12.9-11.2"/>
			</g>
			<g>
				<path class="st0" d="M186.5,2986.3c0,0,2.4,1.4,0.4,5.7s-4.1,8.1-6.7,9.3c-1.8,0.8-3.8-0.8-3.8-0.8"/>
			</g>
			<g>
				<path class="st0" d="M239.1,2993.9c1.3-2.1,3.6-3.5,6.1-3.6c4.4-0.5,18.9,1.9,31.5,3s20.1,3.2,27,4.8s11.1,8.6,10.8,18.1
					c-0.3,8.3-1.2,15.8-8.3,21.2c-4.3,3.3-61.2-6.6-65.6-8s-8.1-4.1-9.2-8.6"/>
			</g>
			<g>
				<path class="st0" d="M239.8,2998.3c0,0,2.5,0.1,3,5.8c0.2,4.7-1.1,9.3-3.6,13.2c-1.3,1.9-4.7,1.2-4.7,1.2"/>
			</g>
			<g>
				<path class="st0" d="M314.1,3010.1c0,0,29.4,9.5,34,6.5s7.8-23.8,1.2-35.4s0.5-15.2,4.7-7.4s13.6,27.7,9.9,44s51,27.1,48.7,18.8
					s0.1-20.3-3.6-41.3s13-27.4,19.1-39.8s-8-25-18.1-44.3s-30.7-27-24-54.6"/>
			</g>
			<g>
				<path class="st0" d="M313.4,3030.1c0,0,48.3,11.7,59.3,24.1s30.8,42.2,14,53s-20.9,37.2-17.9,58.9"/>
			</g>
			<g>
				<path class="st0" d="M506.6,2896.2c0,0,3.8,17.2-13.9,36.9s-16.1,27.3-7,35.8s16.8,27.2,17.5,43.6s29.3,13.7,48.5,6.8
					s51.9,0.6,43.6-33.3s-17.7-56.3-4.3-76.1s50.3-26.1,56.3-34.8"/>
			</g>
			<g>
				<path class="st0" d="M646.4,2899.8c0,0-36.2,20.3-39.8,33.4s8.8,38.9,8.6,61.1s-1.3,38.6-32.5,41.9s17.1,17.1,20.8,20.4
					s29.1,18.7,36,39.9"/>
			</g>
			<g>
				<path class="st0" d="M509.8,3111.4c-6.1-6.4-7-16.2-2.3-23.6c2.6-4-40.8-17-40.9-23.9c-0.1-13.9,12.7-19.8,21.4-13.8
					s17.1,16.4,45.5,20.6c19.9,2.9,6.5,31.9,36.1,53.1c14.7,10.6-17.1,17.1-42.7,8C507.6,3124.8,523.7,3126,509.8,3111.4z"/>
			</g>
			<g>
				<path class="st0" d="M453.5,3169c0.6,0,2.3-10.7,2.5-36.6s5.2-40.3,11.3-33.8s18.1,7,36.3,28.5s-2.2,7.5,18.4,18.4
					s60.7,0.9,70,7.5s34.2,16.4,34.2,16.4"/>
			</g>
			<g>
				<path class="st0" d="M583.5,3105.9c-8.6-6.6-15.7-10.6-16.9-22.8c-0.9-8.2-0.1-16.8-11.2-23.2c-21.1-12.1-37.8-4.5-40.7-12.2
					s11.4-17.3,26.3-9.9s37,25.1,46.5,28.8c10.6,4.2,16.1,10.7,30,28.9s-1,27.2-14.6,19.7C592.1,3109.6,593.7,3113.7,583.5,3105.9
					L583.5,3105.9z"/>
			</g>
			<g>
				<path class="st0" d="M452.3,2858.2c0,0-20.4,59.4-15.3,76.7s14.3,25.8,27.2,0.9s13-26.8,13-26.8s10.9-22.4,5.2-39.7"/>
			</g>
			<g>
				<path class="st0" d="M410.8,3175.8c0.1-4.4,0.3-27.2,11.4-35.7s16.5-2,18.7,8.2s-3.8,17-1.1,31"/>
			</g>
			<g>
				<path class="st0" d="M393,3177.7c-0.6-1.9,0.4-29.7,4.7-42.9s20.4-22.1,13.6-26.7s-25,8-29.1,18s-5.5,13.1-4.6,40.4"/>
			</g>
			<g>
				<path class="st0" d="M411.5,2866.9c0,0-9.5,1.6-0.7,20.2s11.2,24.4,14.7,14.4S431.2,2865.1,411.5,2866.9L411.5,2866.9z"/>
			</g>
		</g>
		
			<linearGradient id="SVGID_7_" gradientUnits="userSpaceOnUse" x1="131.9644" y1="206.7827" x2="255.3788" y2="206.7827" gradientTransform="matrix(1 0 0 -1 0 3201.8899)">
			<stop  offset="0" style="stop-color:#E7AEF4"/>
			<stop  offset="0.28" style="stop-color:#FDF0DC"/>
			<stop  offset="0.66" style="stop-color:#A9DAF0"/>
			<stop  offset="1" style="stop-color:#CCF7D5"/>
		</linearGradient>
		<path class="st6" d="M138,2985.6c-11.7,34.5-4.5,68.6,18.9,80.7c27,14,65.4-6.6,85.7-45.8s14.8-82.4-12.2-96.4
			c-21.8-11.3-51.1-0.1-72.2,25.4"/>
		
			<linearGradient id="SVGID_8_" gradientUnits="userSpaceOnUse" x1="109.8457" y1="207.8427" x2="279.9955" y2="207.8427" gradientTransform="matrix(1 0 0 -1 0 3201.8899)">
			<stop  offset="0" style="stop-color:#E7AEF4"/>
			<stop  offset="0.28" style="stop-color:#FDF0DC"/>
			<stop  offset="0.66" style="stop-color:#A9DAF0"/>
			<stop  offset="1" style="stop-color:#CCF7D5"/>
		</linearGradient>
		<path class="st7" d="M119,2972.4c-18.2,47.5-7.1,96.8,27.8,114.9c38.4,19.8,91.1-5.8,117.7-57.3s17-109.3-21.4-129.1
			c-33.4-17.3-77.7-0.1-106.1,38.6"/>
		
			<linearGradient id="SVGID_9_" gradientUnits="userSpaceOnUse" x1="157.4268" y1="206.7894" x2="229.9629" y2="206.7894" gradientTransform="matrix(1 0 0 -1 0 3201.8899)">
			<stop  offset="0" style="stop-color:#E7AEF4"/>
			<stop  offset="0.28" style="stop-color:#FDF0DC"/>
			<stop  offset="0.66" style="stop-color:#A9DAF0"/>
			<stop  offset="1" style="stop-color:#CCF7D5"/>
		</linearGradient>
		<path class="st8" d="M158.8,2998.8c-2.9,16.7,1.9,31.9,13.5,37.9c15.8,8.2,38.2-3.8,50.1-26.8s8.7-48.2-7.1-56.3
			c-12.3-6.4-28.6-0.5-40.9,13.3"/>
		
			<linearGradient id="SVGID_10_" gradientUnits="userSpaceOnUse" x1="82.918" y1="207.8435" x2="307.0087" y2="207.8435" gradientTransform="matrix(1 0 0 -1 0 3201.8899)">
			<stop  offset="0" style="stop-color:#E7AEF4"/>
			<stop  offset="0.28" style="stop-color:#FDF0DC"/>
			<stop  offset="0.66" style="stop-color:#A9DAF0"/>
			<stop  offset="1" style="stop-color:#CCF7D5"/>
		</linearGradient>
		<path class="st9" d="M98.1,2957.6c-28.4,65-14.6,134.6,33.4,159.4c50.6,26.2,120.1-7.6,155.2-75.5s22.4-144.1-28.2-170.3
			c-44.9-23.2-104.6,0.7-142,53.7"/>
		<g>
			<path class="st0" d="M97.7,2716.7l77.5,209l-55.9-212.1"/>
		</g>
	</g>
</g>
<circle class="st3" cx="206.1" cy="3000.5" r="200"/>
<circle class="st1" cx="1132.1" cy="2173.7" r="200"/>
<g>
	<defs>
		<circle id="SVGID_11_" cx="1132.1" cy="2173.7" r="200"/>
	</defs>
	<clipPath id="SVGID_12_">
		<use xlink:href="#SVGID_11_"  style="overflow:visible;"/>
	</clipPath>
	<g class="st10">
		<g>
			<path class="st0" d="M1255.8,2204c3.4-6.3,5.7-10.9,6-11.4c0.8-1.7-11.5-11-7.4-26.3l0.1-0.4c-1.5-1.8-1.2-4.5,0.7-6
				c0.6-0.5,1.4-0.8,2.2-0.9c5.7-10.2,14.8-10.7,14.8-10.7l0,0c0-0.9,0.8-30.6-25.4-40c-22.5-8.1-62.4-5.6-79-4
				c-13.7,1.3-50.3,2.4-81.8-6.7c-28.4-8.2-68.1-31-79.5-40.1c-0.7-0.6-1.4-1.2-2.1-1.9c4.8,5.5,39.8,47.7,60,138.5
				c12.3,55.2,33.5,88.2,75.4,86.6c33.5-1.3,48.3-5.4,65.3-13c-3-7-1.1-15.1,4.6-20.1c9.6-9.1,17.4-2.8,17.4-2.8
				c8.3-6.9,17.7-21.3,24.6-33.2c-2-1.3-2.5-4-1.2-5.9C1251.6,2203.8,1253.9,2203.2,1255.8,2204L1255.8,2204z M1225.3,2233.8
				c-1.7-0.8-8.9-4.1-21.2,5.1c-11.1,8.3-10.2,23.6-10.2,23.6c-5.9,2.6-53.6,15.5-77.4,4.1c-34.8-16.7-40.9-59.3-48.2-92.9
				c-9.7-44.9-34.4-90.6-34.4-90.6c10,6,29,16.1,56.9,24.2s67.8,6.3,87.3,5.1l12.8-0.7c8-0.4,16.6-0.6,24.8-0.3
				c10.8,0.4,20.7,1.6,26.8,4.4c22.2,10.2,19.7,25.9,19.2,27s-10.3,2-16.4,18.1s5.7,31.6,5.7,31.6
				C1247.2,2199.4,1227,2234.5,1225.3,2233.8L1225.3,2233.8z"/>
			<path class="st0" d="M918,1884c1.3,83.5,25,151.4,43.1,182.9c19.4,33.9,59.9,83.5,69.4,131.7c11.3,57.5,5.2,90.5,46.2,116.3
				c59.5,37.5,128.3-47.4,128.3-47.4 M990.8,1897.3c0,0,11.2,110.3,58,144.7c43.3,31.8,77,37,110.2,37.3c26.8,0.2,71.3-5.6,91.3,3.6
				c24.4,11.3,25.2,50.6,21.8,65.3"/>
			<path class="st0" d="M1034,2083l-30.2-28.1 M1003.8,2054.9L1003.8,2054.9L1003.8,2054.9l0.5,0.6"/>
			<path class="st0" d="M1003.8,2054.9L1003.8,2054.9L1003.8,2054.9l0.5,0.6 M1279.8,2105.2c0.2-1.9,1.3-4.6,4.8-4.5
				c6,0.1,9.1,0.8,13.7,0.9s8.9-3.3,12-2.6s4.8,2.8,3.2,6.2s-10.2,1.4-14.4,2.1s-8.7,3-13.6,3.2
				C1282.7,2110.6,1279.4,2109.1,1279.8,2105.2L1279.8,2105.2z M1306.9,2112.3c1.6-0.6,3.6-2.2,5.1-2.4c3.6-0.4,4.2,1.2,4.2,2.6
				c-0.1,2.1-1.5,3.8-3.4,4.5c-2.9,1.1-7.9,1.1-10.6,2.5s-6.4,3.8-10.3,4.7s-8.7,1.4-10.2-1.3c-1-1.9-0.7-4.4,2-5.8
				s10.1-1.4,13.9-2.4S1304.6,2113.1,1306.9,2112.3L1306.9,2112.3z"/>
			<path class="st0" d="M1282.6,2118c0,0-1.6-0.8-0.2-2.2s11.7-2,17.2-3.6s11.6-4.8,13.3-4s1.1,1.7,1.1,1.7"/>
			<path class="st0" d="M1281,2109c0,0-2.1,2.6,0.1,3.6s11.8-0.6,15.8-2.1s9.3-1.1,11.5-1.5s5.1-0.9,4.7-2.9"/>
			<path class="st0" d="M1282.3,2115.8c0,0-2.8-1.3-1.2-3.3 M1285.7,2159.8c0.9-1.6,3.5-3,6.8-1.6c5.6,2.4,8,3.9,12.5,5.1
				c5.2,1.4,9.9,0.5,12.4,2.3s3.8,5.4,1.1,7.9s-10.9-2.8-15.2-3.8s-9.2-0.5-13.8-2.2C1286.9,2166.6,1283.8,2163.2,1285.7,2159.8z
				 M1308.7,2177.3c1.7,0.1,4.2-0.7,5.6-0.2c3.4,1,3.4,2.7,2.9,4c-0.9,1.9-2.8,3-4.9,2.9c-3.1-0.1-7.7-2-10.8-1.7s-7.4,1-11.3,0.5
				s-8.6-2-8.9-5.1c-0.2-2.2,1-4.3,4.1-4.6s9.9,2.5,13.8,3.1S1306.2,2177.2,1308.7,2177.3L1308.7,2177.3z M1277.7,2243.1
				c2.1,0.7,4.1,1.2,5.3,2.4c2.5,2.5,1.4,4.7,0.4,5.6s-2.7,1-5-0.2c-2.8-1.3-5.3-3.6-8.6-5.4c-2.7-1.4-7.7-2.6-11-4.6
				s-8.1-4.6-6.4-8.8c0.9-2,3-3,5.9-2.1s7.2,6.9,10.5,8.9C1271.6,2240.7,1274.6,2242.1,1277.7,2243.1z"/>
			<path class="st0" d="M1284,2173.4c0,0-1.2-1.3,0.6-2.1s11.6,2.6,17.2,3.2s12.6,0,13.8,1.4s0.4,2,0.4,2"/>
			<path class="st0" d="M1286,2164.5c0,0-2.9,0.9-1.3,3.4c1.3,2,11.1,3.9,15.4,4s9,2.5,11.2,3s5.1,1.1,5.4-0.9 M1284.6,2171.3
				c0,0-2.1-2.2,0.1-3.5"/>
			<g>
				<path class="st11" d="M1226.4,2257c1.7-0.8,5.2,0.4,6.9,3.3c3,5.1,2.8,7.7,5.6,11.3c3.2,4.1,8.3,7.1,8.8,10.1
					c0.3,2.2-0.3,5.9-3.8,5.3c-3.7-0.6-6.9-8.6-9.6-11.9s-6.8-5.8-9.4-9.9C1223.4,2263.1,1223,2258.6,1226.4,2257z M1234.1,2284.3
					c1.3,1.1,3.6,1.9,4.5,3.1c2.1,2.8,1.1,4.1-0.1,4.8c-1.8,0.9-3.9,0.7-5.4-0.6c-2.3-1.9-4.8-6.1-7.4-7.6s-6.3-3.5-9-6.3
					s-5.5-6.6-4-9.2c1.1-1.9,3.3-2.8,5.8-1.2s6.2,7.8,8.9,10.5S1232.2,2282.8,1234.1,2284.3L1234.1,2284.3z"/>
				<path class="st11" d="M1217.2,2266.7c0,0-0.2-1.7,1.7-1.3s7.5,8.9,11.5,12.6s9.7,7.4,9.9,9.2s-0.8,1.8-0.8,1.8"/>
				<path class="st11" d="M1223.9,2260.9c0,0-2.7-1-2.9,1.9c-0.2,2.4,6.4,9.6,9.7,12.2s5.6,7.3,6.9,8.9s3.3,3.9,4.7,2.5
					 M1218.9,2265.4c0,0-0.3-3,2.1-2.6"/>
			</g>
			<path class="st0" d="M1266.7,2226.3c-1.6-1.2-3.2-2.7-3.5-4.7c-0.1-2,1-3.9,2.9-4.8c4.3-2.1,7.8,3.6,8.9,5.5s6.5,7.7,11.6,10
				s5.1,6.4,3,8.1c-1.7,1.4-4.9,0.4-8-3c-3-3.3-3.6-5-8.2-7.1C1271.1,2229.2,1268.8,2227.8,1266.7,2226.3L1266.7,2226.3z
				 M1256.7,2229.7c0,0-0.3-1.8,0.7-2.7s3.3-1.2,11.2,6.5s14,7.4,15.3,9.1c1.7,2.1-0.2,3-0.6,3.3"/>
			<path class="st0" d="M1263.3,2221.6c-1-0.1-2,0.6-2.1,1.6c0,0,0,0.1,0,0.1c-0.2,1.9,5.1,6.4,8.5,7.9s3.3,1.5,6.7,4.4
				s3.8,4.7,6,5.9s3.4,1,4.3-0.6 M1259.4,2226.7c0,0-1.3-3.1,1.7-2.9"/>
			<g>
				<path class="st11" d="M1289.8,2101.1c0,0-4.4-17-1.6-24.3c3.5-9.1,9.8-10.9,21.3-11.1s24.6-0.8,24.6-0.8 M1300,2101.5
					c0,0-5.1-12.9-1.5-20.7c3.9-8.4,13.8-6.5,21.7-6.2s15.7,1.1,18.6,0.5 M1292.9,2124c0,0,1.6,26.9,0.7,34.6 M1301.2,2120.1
					c0,0,1.8,14,1.8,22.7s-0.8,14.9-1,19.7 M1290.5,2182.9c0,0-10.3,32.9-16.8,37.3 M1298.2,2182.7c0,0-4.9,17.7-8,24.4
					s-7.7,15.8-12,18.9 M1258.4,2240.9c0,0-14.6,18.1-23.6,22.4 M1266.3,2244c0,0-15.1,20.4-28.8,25.6 M1216.6,2277.6
					c0,0-16.3,20.8,3,34.4s34.9,4.6,59.6,14c15.5,5.9,25.3,12.3,34.6,21.4 M1224.5,2283.3c0,0-4.8,6.5-3,12.8s5.3,11.9,16.3,14.3
					s23.6,0.1,40.2,5c14.8,4.7,28.5,12.6,39.9,23.1"/>
			</g>
		</g>
		<circle class="st3" cx="1121.4" cy="2137.4" r="4.3"/>
		<circle class="st3" cx="1096.8" cy="2145.6" r="4.3"/>
		<circle class="st3" cx="1118.7" cy="2153.6" r="4.3"/>
		<circle class="st3" cx="1098.6" cy="2169.4" r="4.3"/>
		<circle class="st3" cx="1072.3" cy="2118.2" r="4.3"/>
		<circle class="st3" cx="1138.9" cy="2153.6" r="4.3"/>
		<circle class="st3" cx="1147.3" cy="2176.3" r="4.3"/>
		<path class="st0" d="M1258,2209.7c-1,2.1-3.5,3.1-5.7,2.1c0,0,0,0,0,0c-0.2-0.1-0.4-0.2-0.6-0.4c-2-1.3-2.5-4-1.2-5.9
			c1.2-1.8,3.5-2.4,5.4-1.5l0,0C1258,2205,1259,2207.5,1258,2209.7C1258,2209.7,1258,2209.7,1258,2209.7L1258,2209.7z"/>
		<circle class="st3" cx="1217.2" cy="2254.3" r="4.3"/>
		<circle class="st3" cx="1241.6" cy="2245.3" r="4.3"/>
		<circle class="st3" cx="1275.4" cy="2198.2" r="4.3"/>
		<circle class="st3" cx="1185.7" cy="2156.9" r="3.3"/>
		<circle class="st3" cx="1226.8" cy="2164.4" r="3.3"/>
		<circle class="st3" cx="1221.8" cy="2153.3" r="3.3"/>
		<circle class="st3" cx="1211.4" cy="2121.6" r="3.3"/>
		<circle class="st3" cx="1201.8" cy="2129.3" r="3.3"/>
		<circle class="st3" cx="1203.8" cy="2120.8" r="3.3"/>
		<circle class="st3" cx="1230.6" cy="2156" r="3.3"/>
		<circle class="st3" cx="1223" cy="2200.4" r="3.3"/>
		<circle class="st3" cx="1223" cy="2190.3" r="3.3"/>
		<circle class="st3" cx="1214.1" cy="2196.3" r="3.3"/>
		<circle class="st3" cx="1182.7" cy="2214.8" r="3.3"/>
		<circle class="st3" cx="1131.1" cy="2203.9" r="3.3"/>
		<circle class="st3" cx="1154.2" cy="2248.9" r="3.3"/>
		<circle class="st3" cx="1147" cy="2239.5" r="3.3"/>
		<circle class="st3" cx="1189.3" cy="2207.8" r="3.3"/>
		<circle class="st3" cx="1180.9" cy="2202.6" r="3.3"/>
		<circle class="st3" cx="1120.3" cy="2209.7" r="3.3"/>
		<circle class="st3" cx="1158.2" cy="2238.6" r="3.3"/>
		<circle class="st3" cx="1174.5" cy="2158.1" r="3.3"/>
		<circle class="st3" cx="1181.5" cy="2165.1" r="3.3"/>
		<circle class="st3" cx="1141.3" cy="2125" r="4.3"/>
		<circle class="st3" cx="1274.3" cy="2156.6" r="4.3"/>
		<circle class="st3" cx="1267.9" cy="2177.9" r="4.3"/>
		<path class="st0" d="M1261.7,2165c-1,2.1-3.5,3.1-5.7,2.1c0,0,0,0,0,0c-0.6-0.3-1.1-0.7-1.6-1.2c-1.5-1.8-1.2-4.5,0.7-6
			c0.6-0.5,1.4-0.8,2.2-0.9c0.8-0.1,1.6,0,2.3,0.4C1261.8,2160.3,1262.7,2162.8,1261.7,2165C1261.7,2165,1261.7,2165,1261.7,2165
			L1261.7,2165z"/>
		<circle class="st3" cx="1103.1" cy="2121.6" r="4.3"/>
		<circle class="st3" cx="1183.3" cy="2207.3" r="15.6"/>
		<circle class="st3" cx="1180.3" cy="2159.5" r="15.6"/>
		<path class="st0" d="M1217.7,2127.5c-3.4,7.9-12.6,11.5-20.5,8.1c-7.9-3.4-11.5-12.6-8.1-20.5c0.1-0.2,0.2-0.4,0.3-0.6
			c0.5-1,1-1.9,1.7-2.8c8-0.4,16.6-0.6,24.8-0.3C1219.4,2115.9,1220.1,2122.2,1217.7,2127.5L1217.7,2127.5z"/>
		<circle class="st3" cx="1153.1" cy="2242" r="15.6"/>
		<circle class="st3" cx="1224.4" cy="2157.5" r="15.6"/>
		<circle class="st3" cx="1220.9" cy="2194.3" r="15.6"/>
		<circle class="st3" cx="1124.6" cy="2204.5" r="15.6"/>
		<g>
			<path class="st0" d="M1316.6,2125.5l8.3,3.8"/>
			<path class="st0" d="M1318.9,2131.6l3.8-8.3 M1317.6,2146.9l8.3,3.8"/>
			<path class="st0" d="M1319.8,2153l3.8-8.3 M1307.3,2195.4l8.3,3.8"/>
			<path class="st0" d="M1309.6,2201.5l3.8-8.3 M1296.7,2222.8l8.3,3.8"/>
			<path class="st0" d="M1299,2228.9l3.8-8.3 M1269.1,2258l8.3,3.8"/>
			<path class="st0" d="M1271.3,2264.1l3.8-8.3 M1257,2272.6l8.3,3.8"/>
			<path class="st0" d="M1259.2,2278.7l3.8-8.3"/>
		</g>
	</g>
</g>
<g>
	<circle class="st3" cx="1132.1" cy="2173.7" r="200"/>
	<path class="st0" d="M867.9,1900h190.2l74,74"/>
</g>
<circle class="st1" cx="1112.5" cy="797" r="200"/>
<g>
	<defs>
		<circle id="SVGID_13_" cx="1112.5" cy="797" r="200"/>
	</defs>
	<clipPath id="SVGID_14_">
		<use xlink:href="#SVGID_13_"  style="overflow:visible;"/>
	</clipPath>
	<g class="st12">
		<path class="st0" d="M1138.2,559.1c-31.2,29.8-27.4,147.6-25.8,160.2c0.6,5,0.9,8,1,9.7c0.1,1.3-1,3-3,3.8
			c-6.3,2.6-16.6,0.8-16.3-3.1l0.5-6.8c3.3-47.4-15.9-161.2-31.9-181.7"/>
		<path class="st0" d="M1094.6,725.8c0,0-4.9,0.6-6.1,3.5s-1,13.5,0.4,22.3s6.4,25.3,11.3,32.8c2.6,4.1,4.4,6.1,7.3,7.3
			c6.3,2.6,23.4-2.2,24.8-8c1.6-6.8-7.6-29.6-9-38.5s0.4-21.4-10.2-21.1 M1126.1,789.1c0.7,5.9-1.6,7.6-6.6,9.2s-8.7-0.6-10.6-1.7
			s-1.6-5-1.6-5"/>
		<path class="st0" d="M1105.6,790.7c0,0-7.9,1.3-5.8,12.1s3.8,28.4,3.6,32.3s0.3,9.7,2.1,11.8s9.3,5.5,19,5.2s14-5.8,14.2-8.7
			s-3.2-37.1-2.7-44.8s-8.1-10.4-8.1-10.4"/>
		<path class="st0" d="M1112.1,850.2c-0.6,1.2-0.7,2.6-0.3,3.9c0.8,2,5.5,4.3,10.4,3.6s7.4-1.7,7.5-6.4"/>
		<path class="st0" d="M1108.7,849c0,0-2.3-0.2-2.6,3.7s-0.7,23.2-2.1,29.9s-2.8,11.5-1.9,13.5s5.3,7.2,11.1,7.6s11.7-0.2,14.7-1.9
			s7.1-18.9,7.8-27.6s2.6-23.6-1.7-24.6"/>
		<path class="st0" d="M1105.5,900.2c0,0-3.6-1.3-5,19s-2.8,27-2.4,33.8c0.6,8.4,10.4,8.6,18.5,9c5,0.2,9.2-3.6,9.6-8.6l3-42.8
			c0.4-5.8,0.1-7-3-8.1"/>
		<path class="st0" d="M1109.4,902.7c0,0-1.2,1.6,1.6,3.7s9.6,1.6,11.6,0.8s2.1-2.7,1.7-4.2 M1102.4,959.7c0,0-0.3,4.3,1.5,6.4
			c2.3,2.6,10.5,2.7,13.5,1s3.1-2.7,2.8-5.6"/>
		<path class="st0" d="M1099.3,956.9c0,0-3.4-0.1-3,8.6s1.6,33.1,5,40.1s13.1,6.7,18,6.1s11.9-4,12.3-8.8c0.5-6.8-2.9-28.3-3.3-36.1
			s-2.1-9-3.3-9 M1077.8,550c0,0,12.8,38.7,15.3,58.3 M1090.6,560.6c0,0,7.4,32.5,7.5,58.7 M1085.4,593.2c0,0,9.2,34.6,10.6,57
			 M1097.9,623.2c0,0,1,13.7,0.7,18.5 M1096.7,556.2c0,0,4.9,27.5,4.9,41.1 M1111,560.1c0,0-4.2,31.7-4.9,42.3 M1102.2,603.1
			c0,0,1.2,24.3,0.6,33"/>
		<path class="st0" d="M1119.2,567.4c0,0-2.9,13.4-6,30.6 M1110.2,598.8c0,0-2.8,26-3.2,45.4 M1127.3,563.2c0,0-7,17-10,32.3
			 M1114.7,604c-1.7,6.3-2.8,12.7-3.3,19.2 M1107.9,1011.1l8,34.4c4.4,19.7-6.8,28.6-9.3,36.2 M1128.9,1007.5c0,0,7,43.3,11.9,55.3
			s20.2,16,27.5,23.3"/>
	</g>
</g>
<g>
	<circle class="st3" cx="1112.5" cy="797" r="200"/>
	<path class="st0" d="M713.1,571.5h174.3v0.5l83.5,83.5 M733.1,2866.5l-134,134 M599.1,3000.5h-193 M436.2,360.4l157.9-157.9h316"/>
</g>
<g>
	<path class="st13" d="M1069.1,2407.4l-0.8-2.3h-4.5l-0.8,2.3h-1.8l4.2-11.4h1.4l4.2,11.4H1069.1z M1066.1,2398.6l-1.8,5h3.5
		L1066.1,2398.6z M1076.1,2407.5c-1.1,0-2.2-0.4-3-1.2c-1.1-1.1-1.1-2.4-1.1-4.6s0-3.5,1.1-4.6c0.8-0.8,1.9-1.2,3-1.2
		c2.1-0.1,3.8,1.5,4.1,3.5h-1.8c-0.2-1.3-1.4-2.2-2.7-1.9c-0.5,0.1-0.9,0.3-1.3,0.7c-0.6,0.6-0.7,1.3-0.7,3.6s0.1,2.9,0.7,3.6
		c0.9,0.9,2.4,0.9,3.4,0c0.3-0.3,0.6-0.8,0.6-1.2h1.7C1079.9,2406,1078.1,2407.5,1076.1,2407.5z"/>
	<g>
		<path id="h" class="st13" d="M1086,2397.5v9.9h-1.7v-9.9h-3.1v-1.5h8v1.6L1086,2397.5z"/>
	</g>
	<path class="st13" d="M1091.1,2407.4V2396h1.7v11.4L1091.1,2407.4z M1102.5,2406.3c-0.8,0.8-1.9,1.2-3,1.2c-1.1,0-2.2-0.4-3-1.2
		c-1.1-1.1-1.1-2.4-1.1-4.6s0-3.5,1.1-4.6c0.8-0.8,1.9-1.2,3-1.2c1.1,0,2.2,0.4,3,1.2c1.1,1.1,1.1,2.4,1.1,4.6
		S1103.6,2405.1,1102.5,2406.3z M1101.2,2398.1c-0.9-0.9-2.5-0.9-3.4,0c-0.6,0.6-0.7,1.3-0.7,3.5s0.1,2.9,0.7,3.5
		c0.9,0.9,2.4,0.9,3.4,0c0,0,0,0,0,0c0.6-0.6,0.7-1.2,0.7-3.5S1101.7,2398.8,1101.2,2398.1z M1113.1,2407.4l-5.3-8v8h-1.7V2396h1.6
		l5.3,8v-8h1.7v11.4L1113.1,2407.4z M1125.8,2402.9h-2.6v4.5h-1.7V2396h4.3c1.9-0.1,3.5,1.4,3.6,3.3c0.1,1.9-1.4,3.5-3.3,3.6
		C1126.1,2402.9,1126,2402.9,1125.8,2402.9L1125.8,2402.9z M1125.7,2397.5h-2.5v3.8h2.5c1,0.1,1.9-0.6,2-1.6c0-0.1,0-0.2,0-0.3
		c0-1-0.7-1.9-1.8-1.9C1125.9,2397.5,1125.8,2397.5,1125.7,2397.5L1125.7,2397.5z M1138.3,2406.3c-1.7,1.6-4.3,1.6-6,0
		c-1.1-1.1-1.1-2.4-1.1-4.6s0-3.5,1.1-4.6c1.7-1.6,4.3-1.6,6,0c1.1,1.1,1.1,2.4,1.1,4.6S1139.4,2405.1,1138.3,2406.3z
		 M1136.9,2398.1c-0.9-0.9-2.5-0.9-3.4,0c-0.6,0.6-0.7,1.3-0.7,3.5s0.1,2.9,0.7,3.5c0.9,0.9,2.4,0.9,3.4,0c0,0,0,0,0,0
		c0.6-0.6,0.7-1.2,0.7-3.5S1137.5,2398.8,1136.9,2398.1L1136.9,2398.1z"/>
	<g>
		<path class="st13" d="M1145.4,2397.5v9.9h-1.7v-9.9h-3.1v-1.5h8v1.6L1145.4,2397.5z"/>
	</g>
	<path class="st13" d="M1150.6,2407.4V2396h7.3v1.6h-5.6v3.3h4.7v1.5h-4.7v3.4h5.6v1.6L1150.6,2407.4z M1167.2,2407.4l-5.3-8v8h-1.7
		V2396h1.6l5.3,8v-8h1.7v11.4L1167.2,2407.4z M1175.6,2397.5v9.9h-1.7v-9.9h-3.1v-1.5h8v1.6L1175.6,2397.5z M1180.7,2407.4V2396h1.7
		v11.4L1180.7,2407.4z M1192,2407.4l-0.8-2.3h-4.5l-0.8,2.3h-1.8l4.2-11.4h1.4l4.2,11.4H1192z M1189,2398.6l-1.8,5h3.5L1189,2398.6z
		 M1195.4,2407.4V2396h1.7v9.8h5.5v1.6L1195.4,2407.4z M166.6,1562.8c-1.5,0.1-2.9-0.4-4-1.5l1.1-1.1c0.8,0.8,1.8,1.2,2.9,1.1
		c1.5,0,2.4-0.6,2.4-1.7c0-0.4-0.1-0.9-0.4-1.2c-0.3-0.3-0.8-0.5-1.3-0.5l-1.3-0.2c-0.8-0.1-1.6-0.4-2.2-0.9
		c-0.6-0.6-0.9-1.4-0.8-2.2c0-2,1.4-3.3,3.8-3.3c1.3-0.1,2.6,0.4,3.5,1.3l-1.1,1.1c-0.7-0.6-1.6-0.9-2.5-0.9c-1.3,0-2.1,0.8-2.1,1.8
		c0,0.4,0.2,0.7,0.4,1c0.4,0.3,0.8,0.5,1.3,0.5l1.3,0.2c0.8,0.1,1.5,0.4,2.1,0.8c0.6,0.6,1,1.5,0.9,2.3
		C170.7,1561.5,169,1562.8,166.6,1562.8L166.6,1562.8z M176.4,1558v4.7h-1.7v-4.7l-3.4-6.7h1.9l2.4,5l2.4-5h1.9L176.4,1558z
		 M188.4,1562.7l-5.3-8v8h-1.7v-11.4h1.6l5.3,8v-8h1.7v11.4H188.4z M199.5,1562.7l-0.8-2.3h-4.5l-0.8,2.3h-1.8l4.2-11.4h1.4
		l4.2,11.4H199.5z M196.5,1553.9l-1.8,5.1h3.5L196.5,1553.9z M207.3,1558.2h-2.6v4.5H203v-11.4h4.3c1.9-0.1,3.5,1.4,3.6,3.3
		c0.1,1.9-1.4,3.5-3.3,3.6C207.6,1558.2,207.5,1558.2,207.3,1558.2L207.3,1558.2z M207.2,1552.8h-2.5v3.8h2.5c1,0,1.9-0.9,1.9-1.9
		S208.2,1552.8,207.2,1552.8z M216.1,1562.8c-1.5,0.1-2.9-0.4-4-1.5l1.1-1.1c0.8,0.8,1.8,1.2,2.9,1.1c1.5,0,2.4-0.6,2.4-1.7
		c0-0.4-0.1-0.9-0.4-1.2c-0.3-0.3-0.8-0.5-1.3-0.5l-1.3-0.2c-0.8-0.1-1.6-0.4-2.2-0.9c-0.6-0.6-0.9-1.4-0.8-2.2c0-2,1.4-3.3,3.8-3.3
		c1.3-0.1,2.6,0.4,3.5,1.3l-1.1,1.1c-0.7-0.6-1.6-0.9-2.5-0.9c-1.3,0-2.1,0.8-2.1,1.8c0,0.4,0.2,0.7,0.4,1c0.4,0.3,0.8,0.5,1.3,0.5
		l1.3,0.2c0.8,0.1,1.5,0.4,2.1,0.8c0.6,0.6,1,1.5,0.9,2.3C220.2,1561.5,218.4,1562.8,216.1,1562.8L216.1,1562.8z M222.5,1562.7
		v-11.4h7.3v1.6h-5.6v3.3h4.7v1.5h-4.7v3.4h5.6v1.6L222.5,1562.7z M235.1,1562.8c-1.5,0.1-2.9-0.4-4-1.5l1.1-1.1
		c0.8,0.8,1.8,1.2,2.9,1.1c1.5,0,2.4-0.6,2.4-1.7c0-0.4-0.1-0.9-0.4-1.2c-0.3-0.3-0.8-0.5-1.3-0.5l-1.4-0.2
		c-0.8-0.1-1.5-0.4-2.2-0.9c-0.6-0.6-0.9-1.4-0.8-2.2c0-2,1.4-3.3,3.8-3.3c1.3-0.1,2.6,0.4,3.5,1.3l-1.1,1.1
		c-0.7-0.6-1.6-0.9-2.5-0.9c-1.3,0-2.1,0.8-2.1,1.8c0,0.4,0.2,0.7,0.4,1c0.4,0.3,0.8,0.5,1.3,0.5l1.3,0.2c0.8,0.1,1.5,0.4,2.1,0.8
		c0.6,0.6,1,1.5,0.9,2.3C239.2,1561.5,237.5,1562.8,235.1,1562.8L235.1,1562.8z M1100,1030.7l-0.8-2.3h-4.5l-0.8,2.3h-1.8l4.2-11.4
		h1.4l4.2,11.4H1100z M1097,1021.9l-1.8,5h3.5L1097,1021.9z M1109.1,1030.7l-2.5-4.4l-2.5,4.4h-2l3.5-5.8l-3.3-5.5h2l2.2,4.1
		l2.3-4.1h2l-3.3,5.5l3.5,5.8H1109.1z M1119.3,1029.6c-0.8,0.8-1.9,1.2-3,1.2c-1.1,0-2.2-0.4-3-1.2c-1.1-1.1-1.1-2.4-1.1-4.6
		s0-3.5,1.1-4.6c0.8-0.8,1.9-1.2,3-1.2c1.1,0,2.2,0.4,3,1.2c1.1,1.1,1.1,2.4,1.1,4.6C1120.3,1027.2,1120.4,1028.4,1119.3,1029.6z
		 M1117.9,1021.5c-0.9-0.9-2.5-0.9-3.4,0c-0.6,0.6-0.7,1.3-0.7,3.5s0.1,2.9,0.7,3.5c0.9,0.9,2.5,0.9,3.4,0c0.6-0.6,0.7-1.3,0.7-3.5
		S1118.5,1022.1,1117.9,1021.5L1117.9,1021.5z M1129.9,1030.7l-5.3-8v8h-1.7v-11.4h1.6l5.3,8v-8h1.7v11.4H1129.9z M1050.9,435.1
		c-0.8,0.7-1.9,1.1-2.9,1.1h-4v-11.4h4c1.1-0.1,2.1,0.3,2.9,1.1c1.2,1.2,1.2,2.9,1.2,4.5S1052.1,433.9,1050.9,435.1z M1049.7,427.1
		c-0.5-0.5-1.2-0.8-1.9-0.8h-2.1v8.3h2.1c0.7,0,1.4-0.2,1.9-0.8c0.6-0.6,0.6-1.9,0.6-3.5S1050.3,427.8,1049.7,427.1L1049.7,427.1z
		 M1054.6,436.2v-11.4h7.3v1.5h-5.6v3.3h4.7v1.5h-4.7v3.4h5.6v1.6H1054.6z M1071.2,436.2l-5.3-8v8h-1.7v-11.4h1.6l5.3,8v-8h1.7v11.4
		H1071.2z M1082.7,435.1c-0.8,0.8-1.9,1.1-3,1.1h-4v-11.4h4c1.1-0.1,2.2,0.3,3,1.1c1.2,1.2,1.2,2.9,1.2,4.5S1084,433.9,1082.7,435.1
		z M1081.5,427.1c-0.5-0.5-1.2-0.8-1.9-0.8h-2.1v8.3h2.1c0.7,0,1.4-0.2,1.9-0.8c0.6-0.6,0.6-1.9,0.6-3.5S1082.1,427.8,1081.5,427.1
		L1081.5,427.1z M1092.7,436.2l-2.4-4.8h-2.2v4.8h-1.7v-11.4h4.4c1.8-0.2,3.4,1.2,3.5,3c0,0.1,0,0.2,0,0.4c0,1.4-0.9,2.7-2.3,3
		l2.6,5L1092.7,436.2z M1090.7,426.3h-2.6v3.6h2.6c1,0.1,1.8-0.7,1.9-1.7c0.1-1-0.7-1.8-1.7-1.9
		C1090.9,426.3,1090.8,426.3,1090.7,426.3z M1096.9,436.2v-11.4h1.7v11.4H1096.9z M1105.5,426.3v9.9h-1.7v-9.9h-3.1v-1.5h8v1.5
		H1105.5z M1110.6,436.2v-11.4h1.7v11.4H1110.6z M1119,436.3c-1.1,0-2.2-0.4-3-1.2c-1.1-1.1-1.1-2.4-1.1-4.6s0-3.5,1.1-4.6
		c0.8-0.8,1.9-1.2,3-1.2c2.1-0.1,3.9,1.5,4.1,3.5h-1.8c-0.2-1.3-1.5-2.1-2.7-1.9c-0.5,0.1-0.9,0.3-1.3,0.6c-0.6,0.6-0.7,1.3-0.7,3.6
		s0.1,2.9,0.7,3.5c0.4,0.5,1,0.7,1.7,0.7c1.2,0,2.2-0.8,2.3-2h1.7C1122.8,434.8,1121,436.3,1119,436.3L1119,436.3z M1132.2,436.3
		c-1.5,0.1-2.9-0.4-4-1.5l1.2-1.1c0.8,0.8,1.8,1.2,2.9,1.1c1.5,0,2.3-0.6,2.3-1.8c0-0.4-0.1-0.9-0.4-1.2c-0.3-0.3-0.8-0.5-1.3-0.5
		l-1.3-0.2c-0.8-0.1-1.5-0.4-2.2-0.9c-0.6-0.6-0.9-1.4-0.8-2.2c0-2,1.4-3.4,3.8-3.4c1.3-0.1,2.6,0.4,3.5,1.3l-1.1,1.1
		c-0.7-0.6-1.6-0.9-2.5-0.9c-1.3,0-2.1,0.8-2.1,1.8c0,0.4,0.1,0.8,0.4,1c0.4,0.3,0.8,0.5,1.3,0.5l1.3,0.2c0.8,0.1,1.5,0.4,2.1,0.9
		c0.6,0.6,1,1.5,0.9,2.3C1136.3,435,1134.6,436.3,1132.2,436.3L1132.2,436.3z M1142.9,431.7h-2.6v4.5h-1.7v-11.4h4.3
		c1.9-0.1,3.5,1.4,3.6,3.3c0.1,1.9-1.4,3.5-3.3,3.6C1143.2,431.7,1143,431.7,1142.9,431.7z M1142.8,426.3h-2.5v3.8h2.5
		c1,0,1.9-0.8,1.9-1.9C1144.7,427.2,1143.9,426.4,1142.8,426.3C1142.8,426.3,1142.8,426.3,1142.8,426.3z M1148.7,436.2v-11.4h1.7
		v11.4H1148.7z M1160.4,436.2l-5.3-8v8h-1.7v-11.4h1.6l5.3,8v-8h1.7v11.4H1160.4z M1164.9,436.2v-11.4h7.3v1.5h-5.6v3.3h4.7v1.5
		h-4.7v3.4h5.6v1.6H1164.9z M1177.6,436.3c-1.5,0.1-2.9-0.4-4-1.5l1.2-1.1c0.8,0.8,1.8,1.2,2.9,1.1c1.5,0,2.3-0.6,2.3-1.8
		c0-0.4-0.1-0.9-0.4-1.2c-0.3-0.3-0.8-0.5-1.3-0.5l-1.3-0.2c-0.8-0.1-1.5-0.4-2.2-0.9c-0.6-0.6-0.9-1.4-0.8-2.2c0-2,1.4-3.4,3.8-3.4
		c1.3-0.1,2.6,0.4,3.5,1.3l-1.1,1.1c-0.7-0.6-1.6-0.9-2.5-0.9c-1.3,0-2.1,0.8-2.1,1.8c0,0.4,0.1,0.8,0.4,1c0.4,0.3,0.8,0.5,1.3,0.5
		l1.3,0.2c0.8,0.1,1.5,0.4,2.1,0.9c0.6,0.6,1,1.5,0.9,2.3C1181.7,435,1180,436.3,1177.6,436.3L1177.6,436.3z"/>
</g>
</svg>
